<svg width="33" height="33" viewBox="0 0 33 33" fill="none" xmlns="http://www.w3.org/2000/svg">
<g clip-path="url(#clip0_4481_2961)">
<path d="M24.2941 10.0607L15.098 8.45405C14.8537 8.41574 14.6042 8.4749 14.4031 8.6188C14.202 8.76269 14.0655 8.97981 14.023 9.22338C13.9804 9.46696 14.0352 9.7175 14.1756 9.92105C14.316 10.1246 14.5307 10.2649 14.7735 10.3117L21.727 11.5265L8.15733 21.0599C7.95268 21.2037 7.81353 21.4228 7.77049 21.6692C7.72745 21.9156 7.78404 22.169 7.92781 22.3736C8.07158 22.5783 8.29077 22.7174 8.53714 22.7604C8.78351 22.8035 9.03688 22.7469 9.24153 22.6031L22.8112 13.0697L21.5964 20.0232C21.5727 20.1462 21.5737 20.2726 21.5994 20.3952C21.6251 20.5177 21.675 20.634 21.7461 20.737C21.8172 20.8401 21.9081 20.928 22.0135 20.9956C22.1189 21.0631 22.2367 21.109 22.3601 21.1306C22.4834 21.1521 22.6098 21.1489 22.7319 21.1211C22.854 21.0933 22.9693 21.0414 23.0711 20.9685C23.173 20.8957 23.2593 20.8032 23.325 20.6967C23.3907 20.5901 23.4346 20.4715 23.454 20.3478L25.0606 11.1517C25.1036 10.9054 25.047 10.6521 24.9033 10.4475C24.7595 10.2429 24.5404 10.1037 24.2941 10.0607Z" fill="black"/>
</g>
<defs>
<clipPath id="clip0_4481_2961">
<rect width="22.6323" height="22.6323" fill="white" transform="translate(0.648438 13.6574) rotate(-35.09)"/>
</clipPath>
</defs>
</svg>
