<svg width="26" height="25" viewBox="0 0 26 25" fill="none" xmlns="http://www.w3.org/2000/svg">
<g clip-path="url(#clip0_4481_3685)">
<path d="M19.0971 7.58587L11.8125 6.15077C11.6189 6.11612 11.4195 6.15889 11.2571 6.26986C11.0948 6.38083 10.9825 6.55113 10.9445 6.74407C10.9065 6.93702 10.9458 7.13718 11.0539 7.30143C11.162 7.46569 11.3303 7.58091 11.5226 7.62226L17.0308 8.7074L6.07761 16.0552C5.91243 16.166 5.79803 16.3379 5.75958 16.5331C5.72113 16.7283 5.76179 16.9307 5.8726 17.0959C5.98341 17.2611 6.15531 17.3755 6.35047 17.4139C6.54563 17.4524 6.74807 17.4117 6.91326 17.3009L17.8665 9.95307L16.7813 15.4613C16.7604 15.5586 16.759 15.6592 16.7774 15.7571C16.7957 15.855 16.8333 15.9482 16.8881 16.0314C16.9429 16.1146 17.0136 16.186 17.0963 16.2416C17.179 16.2971 17.2719 16.3356 17.3696 16.3549C17.4673 16.3741 17.5678 16.3737 17.6654 16.3537C17.763 16.3337 17.8555 16.2944 17.9378 16.2382C18.02 16.182 18.0902 16.11 18.1443 16.0264C18.1984 15.9428 18.2353 15.8492 18.2528 15.7512L19.6879 8.46656C19.7263 8.27143 19.6857 8.06904 19.5749 7.90388C19.4641 7.73873 19.2922 7.62434 19.0971 7.58587Z" fill="white"/>
</g>
<defs>
<clipPath id="clip0_4481_3685">
<rect width="18" height="18" fill="white" transform="translate(0.230469 10.0388) rotate(-33.8552)"/>
</clipPath>
</defs>
</svg>
