<svg width="29" height="28" viewBox="0 0 29 28" fill="none" xmlns="http://www.w3.org/2000/svg">
<path fill-rule="evenodd" clip-rule="evenodd" d="M8.97025 7.87435H7.42033C6.904 7.87437 6.40686 8.07001 6.029 8.42189C5.65115 8.77377 5.42065 9.25575 5.38391 9.77076L4.38408 23.7708C4.36414 24.0504 4.40199 24.3311 4.4953 24.5955C4.5886 24.8599 4.73535 25.1022 4.9264 25.3074C5.11745 25.5125 5.3487 25.6762 5.60576 25.788C5.86281 25.8999 6.14015 25.9577 6.4205 25.9577H22.5812C22.8615 25.9575 23.1387 25.8996 23.3957 25.7877C23.6527 25.6758 23.8838 25.5121 24.0749 25.307C24.2659 25.1019 24.4126 24.8596 24.506 24.5953C24.5994 24.331 24.6373 24.0504 24.6176 23.7708L23.6177 9.77076C23.581 9.25575 23.3505 8.77377 22.9727 8.42189C22.5948 8.07001 22.0977 7.87437 21.5813 7.87435H20.0425V7.58268C20.0425 6.11294 19.4586 4.7034 18.4194 3.66413C17.3801 2.62487 15.9706 2.04102 14.5008 2.04102C11.5521 2.04102 8.82675 4.38952 8.95916 7.58268L8.97025 7.87435ZM18.2925 7.87435V7.58268C18.2925 6.57707 17.893 5.61264 17.1819 4.90157C16.4709 4.19049 15.5064 3.79102 14.5008 3.79102C13.4952 3.79102 12.5308 4.19049 11.8197 4.90157C11.1086 5.61264 10.7092 6.57707 10.7092 7.58268V7.87435H18.2925Z" fill="url(#paint0_linear_4481_3399)"/>
<defs>
<linearGradient id="paint0_linear_4481_3399" x1="14.5008" y1="25.9577" x2="14.5008" y2="2.04102" gradientUnits="userSpaceOnUse">
<stop stop-color="#0CA6FC"/>
<stop offset="1" stop-color="#6ACAFF"/>
</linearGradient>
</defs>
</svg>
