<svg width="47" height="47" viewBox="0 0 47 47" fill="none" xmlns="http://www.w3.org/2000/svg">
<path d="M19.0943 22.1592C18.3276 21.3925 17.1776 21.3925 16.4109 22.1592C15.6443 22.9259 15.6443 24.0759 16.4109 24.8425L22.1609 30.5925C22.5443 30.9759 22.9276 31.1675 23.5026 31.1675C24.0776 31.1675 24.4609 30.9759 24.8443 30.5925L38.2609 15.2592C38.8359 14.3009 38.8359 13.1509 37.8776 12.5759C37.1109 12.0009 35.9609 12.0009 35.3859 12.7675L23.5026 26.3759L19.0943 22.1592Z" fill="#007ECE"/>
<path d="M40.7526 21.584C39.6026 21.584 38.8359 22.3507 38.8359 23.5007C38.8359 31.934 31.9359 38.834 23.5026 38.834C15.0693 38.834 8.16927 31.934 8.16927 23.5007C8.16927 19.4757 9.70261 15.6423 12.5776 12.7673C15.4526 9.70065 19.2859 8.16732 23.5026 8.16732C24.6526 8.16732 25.9943 8.35898 27.1443 8.55065C28.1026 8.93398 29.2526 8.35898 29.6359 7.20898C30.0193 6.05898 29.2526 5.29232 28.2943 4.90898H28.1026C26.5693 4.52565 25.0359 4.33398 23.5026 4.33398C12.9609 4.33398 4.33594 12.959 4.33594 23.6923C4.33594 28.6757 6.44427 33.659 9.89427 37.109C13.5359 40.7507 18.3276 42.6673 23.3109 42.6673C33.8526 42.6673 42.4776 34.0423 42.4776 23.5007C42.6693 22.3507 41.7109 21.584 40.7526 21.584Z" fill="#007ECE"/>
</svg>
