<svg width="181" height="180" viewBox="0 0 181 180" fill="none" xmlns="http://www.w3.org/2000/svg">
<g clip-path="url(#clip0_4967_1908)">
<path d="M122.099 3.9364H16.0152C11.8674 3.9364 7.97 5.55183 5.04324 8.48386C2.11367 11.4134 0.5 15.3102 0.5 19.4554V43.5508C0.5 44.2501 0.777796 44.9208 1.27228 45.4153C1.76676 45.9097 2.43742 46.1875 3.13672 46.1875H26.2604V143.182C26.2604 143.882 26.5382 144.552 27.0327 145.047C27.5271 145.541 28.1978 145.819 28.8971 145.819H87.5282C88.2275 145.819 88.8982 145.541 89.3927 145.047C89.8872 144.552 90.165 143.882 90.165 143.182C90.1651 142.836 90.0969 142.493 89.9645 142.173C89.832 141.853 89.6379 141.562 89.393 141.318C89.1482 141.073 88.8576 140.878 88.5377 140.746C88.2177 140.613 87.8749 140.545 87.5286 140.545H31.5338V19.4554C31.5338 19.1984 31.5268 18.9432 31.5145 18.6894C31.5103 18.6053 31.5025 18.5224 31.4969 18.4387C31.4869 18.2699 31.474 18.1012 31.4582 17.9328C31.4487 17.834 31.4354 17.7359 31.4238 17.6375C31.4059 17.4863 31.3883 17.3352 31.3661 17.1854C31.351 17.082 31.3327 16.9797 31.3155 16.8771C31.292 16.7341 31.2664 16.5915 31.2389 16.4492C31.2179 16.345 31.1959 16.2411 31.1728 16.1374C31.0907 15.7582 30.9936 15.3824 30.8817 15.011C30.8517 14.9096 30.8204 14.8085 30.7878 14.7079C30.7445 14.5742 30.6994 14.4411 30.6525 14.3086C30.618 14.2108 30.5836 14.1131 30.5473 14.0164C30.4967 13.8828 30.4442 13.7499 30.3898 13.6177C30.3522 13.5253 30.3153 13.4325 30.2759 13.3407C30.2169 13.2036 30.1546 13.0689 30.0917 12.9339C30.0527 12.8496 30.0147 12.7648 29.9743 12.6812C29.9026 12.5339 29.8266 12.3894 29.7507 12.2449C29.7145 12.1763 29.6804 12.1067 29.6435 12.0385C29.4131 11.6171 29.1633 11.2065 28.895 10.808C28.8528 10.7455 28.8078 10.6846 28.7646 10.6224C28.6711 10.4881 28.5775 10.3538 28.4798 10.2223C28.4246 10.1482 28.367 10.0757 28.3104 10.0026C28.2207 9.8866 28.1314 9.77058 28.0386 9.65703C27.976 9.58003 27.9113 9.50515 27.847 9.42957C27.7851 9.35644 27.725 9.28191 27.6617 9.20984H122.099C127.748 9.20984 132.345 13.8058 132.345 19.4554V49.3495C132.345 50.8057 133.525 51.9862 134.981 51.9862C136.438 51.9862 137.618 50.8057 137.618 49.3495V19.4554C137.618 10.8984 130.656 3.9364 122.099 3.9364ZM26.2607 40.9141H5.77344V19.4554C5.77344 16.7185 6.83832 14.1465 8.77367 12.2111C10.7059 10.2758 13.2772 9.20984 16.0152 9.20984C21.6644 9.20984 26.2607 13.8058 26.2607 19.4554V40.9141ZM134.981 134.433C134.282 134.433 133.611 134.71 133.117 135.205C132.623 135.699 132.345 136.37 132.345 137.069V140.545H131.388C130.689 140.545 130.018 140.823 129.524 141.317C129.029 141.812 128.751 142.483 128.751 143.182C128.751 143.881 129.029 144.552 129.524 145.046C130.018 145.541 130.689 145.819 131.388 145.819H134.981C135.681 145.819 136.351 145.541 136.846 145.046C137.34 144.552 137.618 143.881 137.618 143.182V137.069C137.618 136.37 137.34 135.699 136.846 135.205C136.351 134.71 135.681 134.433 134.981 134.433Z" fill="#7FBAE5"/>
<path d="M96.6714 74.0774L92.2361 68.3135L87.4105 62.0413L96.6714 50.0062C97.0978 49.452 97.2867 48.751 97.1963 48.0575C97.106 47.364 96.7438 46.7348 96.1896 46.3083C95.6353 45.8818 94.9343 45.693 94.2408 45.7834C93.5473 45.8737 92.9181 46.2359 92.4916 46.7901L84.0826 57.7178L75.9098 47.0971C82.5579 46.1067 87.6742 40.3611 87.6742 33.442C87.6742 25.8286 81.4804 19.6344 73.8669 19.6344H62.4886C61.7893 19.6344 61.1186 19.9122 60.6242 20.4067C60.1297 20.9012 59.8519 21.5718 59.8519 22.2711V67.0092C59.8519 68.4654 61.0321 69.6459 62.4886 69.6459C63.9451 69.6459 65.1253 68.4654 65.1253 67.0092V47.2496H69.3722L80.7547 62.0434L71.4946 74.0774C71.1945 74.4676 71.0097 74.934 70.9609 75.4238C70.9121 75.9136 71.0014 76.4072 71.2186 76.8489C71.4358 77.2906 71.7723 77.6627 72.19 77.9232C72.6077 78.1836 73.0899 78.3219 73.5821 78.3225C73.9864 78.3231 74.3854 78.2306 74.7482 78.0522C75.1109 77.8737 75.4277 77.6141 75.6739 77.2935L84.083 66.3658L89.2341 73.0596L92.4902 77.2921C92.7007 77.5682 92.9637 77.8 93.264 77.9743C93.5644 78.1485 93.8961 78.2618 94.2403 78.3075C94.5845 78.3532 94.9344 78.3304 95.2698 78.2406C95.6052 78.1507 95.9195 77.9955 96.1948 77.7839C96.47 77.5723 96.7008 77.3084 96.8738 77.0073C97.0468 76.7063 97.1587 76.374 97.203 76.0296C97.2472 75.6852 97.2231 75.3355 97.1318 75.0005C97.0406 74.6655 96.8841 74.3518 96.6714 74.0774ZM70.758 41.9762H65.1246V24.9078H73.8662C78.5719 24.9078 82.4 28.7364 82.4 33.442C82.4007 38.1477 78.5722 41.9762 73.8666 41.9762H70.758ZM109.115 92.1066H46.1719C45.4726 92.1066 44.8019 92.3843 44.3074 92.8788C43.813 93.3733 43.5352 94.044 43.5352 94.7433C43.5352 95.4426 43.813 96.1132 44.3074 96.6077C44.8019 97.1022 45.4726 97.38 46.1719 97.38H109.115C109.815 97.38 110.485 97.1022 110.98 96.6077C111.474 96.1132 111.752 95.4426 111.752 94.7433C111.752 94.044 111.474 93.3733 110.98 92.8788C110.485 92.3843 109.815 92.1066 109.115 92.1066ZM100.334 110.082H46.1719C45.4726 110.082 44.8019 110.359 44.3074 110.854C43.813 111.348 43.5352 112.019 43.5352 112.718C43.5352 113.418 43.813 114.088 44.3074 114.583C44.8019 115.077 45.4726 115.355 46.1719 115.355H100.334C101.034 115.355 101.704 115.077 102.199 114.583C102.693 114.088 102.971 113.418 102.971 112.718C102.971 112.019 102.693 111.348 102.199 110.854C101.704 110.359 101.034 110.082 100.334 110.082ZM179.18 70.6813L173.033 67.1322C176.035 59.388 173.026 50.3726 165.614 46.0933C157.425 41.3655 146.917 44.1815 142.19 52.3698L107.906 111.753C107.732 112.053 107.62 112.384 107.575 112.727C107.529 113.071 107.552 113.42 107.642 113.754C107.731 114.089 107.886 114.402 108.097 114.677C108.308 114.952 108.571 115.182 108.871 115.355L109.905 115.952L91.8339 151.265C91.7899 151.352 91.751 151.441 91.7172 151.533C91.707 151.559 91.6985 151.586 91.689 151.613C91.6652 151.683 91.6443 151.753 91.6264 151.824C91.6194 151.853 91.6117 151.881 91.6053 151.91C91.5843 152.008 91.567 152.106 91.5572 152.205L89.4742 173.166C89.4376 173.533 89.4782 173.903 89.5934 174.253C89.7086 174.602 89.8958 174.924 90.1429 175.197C90.3901 175.47 90.6917 175.688 91.0284 175.838C91.3651 175.987 91.7293 176.064 92.0975 176.064C92.6494 176.064 93.1874 175.891 93.6356 175.569L110.747 163.284C110.895 163.176 111.031 163.053 111.153 162.917C111.251 162.811 111.341 162.697 111.422 162.576L111.423 162.574L111.423 162.574L111.426 162.569L132.969 129.269L134.003 129.866C134.303 130.039 134.634 130.151 134.977 130.197C135.321 130.242 135.67 130.219 136.004 130.129C136.338 130.04 136.652 129.885 136.927 129.674C137.201 129.463 137.432 129.2 137.605 128.9L170.571 71.8007L174.259 73.9297L159.502 99.4901C159.157 100.095 159.067 100.812 159.249 101.484C159.432 102.156 159.872 102.729 160.475 103.077C161.078 103.425 161.795 103.52 162.468 103.342C163.141 103.164 163.716 102.727 164.068 102.127L180.144 74.283C180.317 73.9833 180.43 73.6523 180.475 73.309C180.521 72.9657 180.498 72.6169 180.408 72.2824C180.319 71.9479 180.164 71.6343 179.953 71.3596C179.743 71.0849 179.48 70.8544 179.18 70.6813ZM95.2989 167.883L96.401 156.792L104.353 161.383L95.2989 167.883ZM108.357 157.606L97.6702 151.436L114.477 118.592L128.397 126.629L108.357 157.606ZM167.323 66.8809L134.357 123.981L133.457 123.461C133.45 123.457 133.443 123.452 133.436 123.448L114.712 112.637C114.703 112.633 114.694 112.629 114.685 112.624L113.79 112.107L146.757 55.0069C150.03 49.3369 157.307 47.3874 162.977 50.6608C168.647 53.9342 170.597 61.2109 167.323 66.8809Z" fill="#7FBAE5"/>
</g>
<defs>
<clipPath id="clip0_4967_1908">
<rect width="180" height="180" fill="white" transform="translate(0.5)"/>
</clipPath>
</defs>
</svg>
