<svg width="20" height="21" viewBox="0 0 20 21" fill="none" xmlns="http://www.w3.org/2000/svg">
<path fill-rule="evenodd" clip-rule="evenodd" d="M9.9974 1.54297C7.81127 1.54297 6.03906 3.31518 6.03906 5.5013C6.03906 7.68743 7.81127 9.45964 9.9974 9.45964C12.1835 9.45964 13.9557 7.68743 13.9557 5.5013C13.9557 3.31518 12.1835 1.54297 9.9974 1.54297ZM7.28906 5.5013C7.28906 4.00553 8.50162 2.79297 9.9974 2.79297C11.4932 2.79297 12.7057 4.00553 12.7057 5.5013C12.7057 6.99707 11.4932 8.20964 9.9974 8.20964C8.50162 8.20964 7.28906 6.99707 7.28906 5.5013Z" fill="url(#paint0_linear_4481_3405)"/>
<path fill-rule="evenodd" clip-rule="evenodd" d="M9.9974 10.7096C8.29795 10.7096 6.72866 11.1019 5.56252 11.7683C4.41406 12.4246 3.53906 13.4264 3.53906 14.668C3.53906 15.9095 4.41406 16.9114 5.56252 17.5676C6.72866 18.234 8.29795 18.6263 9.9974 18.6263C11.6968 18.6263 13.2661 18.234 14.4323 17.5676C15.5807 16.9114 16.4557 15.9095 16.4557 14.668C16.4557 13.4264 15.5807 12.4246 14.4323 11.7683C13.2661 11.1019 11.6968 10.7096 9.9974 10.7096ZM4.78906 14.668C4.78906 14.0686 5.2199 13.4038 6.18269 12.8536C7.1278 12.3135 8.47518 11.9596 9.9974 11.9596C11.5196 11.9596 12.867 12.3135 13.8121 12.8536C14.7749 13.4038 15.2057 14.0686 15.2057 14.668C15.2057 15.2674 14.7749 15.9322 13.8121 16.4823C12.867 17.0224 11.5196 17.3763 9.9974 17.3763C8.47518 17.3763 7.1278 17.0224 6.18269 16.4823C5.2199 15.9322 4.78906 15.2674 4.78906 14.668Z" fill="url(#paint1_linear_4481_3405)"/>
<defs>
<linearGradient id="paint0_linear_4481_3405" x1="9.9974" y1="18.6263" x2="9.9974" y2="1.54297" gradientUnits="userSpaceOnUse">
<stop stop-color="#0CA6FC"/>
<stop offset="1" stop-color="#6ACAFF"/>
</linearGradient>
<linearGradient id="paint1_linear_4481_3405" x1="9.9974" y1="18.6263" x2="9.9974" y2="1.54297" gradientUnits="userSpaceOnUse">
<stop stop-color="#0CA6FC"/>
<stop offset="1" stop-color="#6ACAFF"/>
</linearGradient>
</defs>
</svg>
