<svg width="71" height="70" viewBox="0 0 71 70" fill="none" xmlns="http://www.w3.org/2000/svg">
<g clip-path="url(#clip0_4481_3289)">
<path d="M19.3594 18.1864V30.1641C19.8083 29.782 20.3895 29.5505 21.025 29.5505H28.9565V21.6185C28.9565 21.6125 28.9575 21.607 28.9575 21.601V13.0434C25.3345 13.9718 22.0591 15.7646 19.3594 18.1864Z" fill="url(#paint0_linear_4481_3289)"/>
<path d="M39.7617 19.9551C40.1423 20.4041 40.3733 20.9842 40.3733 21.6187V29.5508H46.9669H48.3043H56.8819C55.954 25.9287 54.1617 22.6543 51.7408 19.9551H39.7617Z" fill="url(#paint1_linear_4481_3289)"/>
<path d="M11.7344 35.2593C11.7344 36.9059 11.911 38.5107 12.2412 40.0586H19.0648C18.6822 39.6091 18.4507 39.0275 18.4507 38.3915V32.1261C18.4507 32.0752 18.4552 32.0258 18.4577 31.9754H18.4507V19.044C14.3009 23.1943 11.7344 28.927 11.7344 35.2593Z" fill="#0CA6FC"/>
<path d="M37.7957 51.473H31.6839V51.4755H18.4492C22.5991 55.6249 28.3317 58.1914 34.6645 58.1914C36.3106 58.1914 37.9154 58.0143 39.4638 57.6846V50.8585C39.0143 51.2411 38.4322 51.473 37.7957 51.473Z" fill="#0CA6FC"/>
<path d="M29.8672 12.8336V19.6562C30.3166 19.2751 30.8968 19.0437 31.5323 19.0437H37.7977C37.8117 19.0437 37.8252 19.0457 37.8391 19.0462H50.8838C46.7344 14.8948 41.0003 12.3268 34.6665 12.3268C33.0199 12.3268 31.4156 12.5039 29.8672 12.8336Z" fill="#0CA6FC"/>
<path d="M50.2656 30.46C50.6472 30.9089 50.8787 31.4896 50.8787 32.1256V37.0272V38.391V51.4766C55.03 47.3267 57.5981 41.5926 57.5981 35.2588C57.5981 33.6121 57.4205 32.0079 57.0912 30.46H50.2656Z" fill="#0CA6FC"/>
<path d="M21.7825 40.9677H12.4492C13.3776 44.5908 15.1709 47.8667 17.5927 50.5664H29.5704C29.1883 50.117 28.9553 49.5353 28.9553 48.8988V40.9677H21.7825Z" fill="url(#paint2_linear_4481_3289)"/>
<path d="M48.3045 40.9665H40.375V47.8385V57.4746C43.9971 56.5468 47.2714 54.7549 49.9707 52.3341V40.3535C49.5212 40.7351 48.9401 40.9665 48.3045 40.9665Z" fill="url(#paint3_linear_4481_3289)"/>
<path d="M3.13947 33.326L3.28929 32.3017L6.67937 31.7551L3.58731 30.2642L3.73713 29.2399L8.40269 31.5849L8.28094 32.4173L3.13947 33.326ZM3.04688 33.959L3.20291 32.8923L7.19263 33.2722L8.13571 33.4102L7.95053 34.6762L3.04688 33.959ZM3.67343 29.6754L3.82999 28.605L8.73365 29.3223L8.54792 30.592L7.60484 30.4541L3.67343 29.6754Z" fill="url(#paint4_linear_4481_3289)"/>
<path d="M5.28663 24.3008L7.50513 24.3197L5.94849 22.7399L6.48512 21.4743L8.81117 24.1685L10.4339 24.8565L9.92788 26.05L8.30512 25.3619L4.75 25.5664L5.28663 24.3008Z" fill="url(#paint5_linear_4481_3289)"/>
<path d="M13.7639 14.7924L14.518 15.4906L12.8327 17.3109L12.0785 16.6127L13.7639 14.7924ZM10.9591 14.9967L14.5956 18.3636L13.7263 19.3025L10.0898 15.9355L10.9591 14.9967ZM12.9385 12.8589L16.575 16.2258L15.7107 17.1592L12.0743 13.7923L12.9385 12.8589Z" fill="url(#paint6_linear_4481_3289)"/>
<path d="M20.5414 12.0212L21.124 12.8678L18.9667 14.3524L18.3841 13.5058L20.5414 12.0212ZM16.5306 10.0129L19.3401 14.0954L18.2861 14.8208L15.4766 10.7383L16.5306 10.0129ZM19.1245 10.5577L19.6859 11.3736L17.8068 12.6668L17.2453 11.8509L19.1245 10.5577ZM18.3222 8.77999L18.9069 9.62968L16.742 11.1195L16.1572 10.2699L18.3222 8.77999Z" fill="url(#paint7_linear_4481_3289)"/>
<path d="M23.4213 7.63887L23.7533 11.56L22.4804 12.0739L22.3113 6.79767L23.1121 6.47436L23.4213 7.63887ZM25.7008 10.7737L23.2121 7.72336L22.6105 6.67687L23.4217 6.34937L26.972 10.2604L25.7008 10.7737ZM24.9901 9.05319L25.3762 10.0096L23.0188 10.9614L22.6327 10.005L24.9901 9.05319Z" fill="url(#paint8_linear_4481_3289)"/>
<path d="M31.8451 8.28882L32.0154 9.30234L29.5579 9.71525L29.3876 8.70173L31.8451 8.28882ZM29.18 4.75344L30.0012 9.64077L28.7431 9.85217L27.9219 4.96484L29.18 4.75344Z" fill="url(#paint9_linear_4481_3289)"/>
<path d="M35.7471 4.28404L35.6776 9.23939L34.402 9.22151L34.4714 4.26617L35.7471 4.28404ZM37.2111 4.30456L37.1966 5.33591L33.0246 5.27745L33.0391 4.24609L37.2111 4.30456Z" fill="url(#paint10_linear_4481_3289)"/>
<path d="M43.111 7.38652L42.8607 8.38331L40.4547 7.77921L40.7049 6.78243L43.111 7.38652ZM41.5848 5.02447L40.3779 9.83112L39.1369 9.51954L40.3438 4.71289L41.5848 5.02447ZM44.4105 5.73394L43.2037 10.5406L41.9699 10.2308L43.1767 5.42417L44.4105 5.73394Z" fill="url(#paint11_linear_4481_3289)"/>
<path d="M54.2934 11.011L51.4867 15.0955L50.4383 14.3751L50.7122 11.0849L49.0886 13.4476L48.0371 12.7251L50.8438 8.64062L51.8952 9.36315L51.6214 12.6534L53.2449 10.2906L54.2934 11.011Z" fill="url(#paint12_linear_4481_3289)"/>
<path d="M56.2274 18.4099L55.4738 19.1086L53.6933 17.1883L54.4469 16.4895L56.2274 18.4099ZM57.6356 14.1512L54.0015 17.5207L53.1315 16.5824L56.7656 13.2129L57.6356 14.1512ZM57.471 16.7965L56.7447 17.4699L55.1937 15.7971L55.92 15.1237L57.471 16.7965ZM59.1143 15.746L58.3579 16.4473L56.5711 14.5201L57.3274 13.8188L59.1143 15.746Z" fill="url(#paint13_linear_4481_3289)"/>
<path d="M59.272 23.0555L58.3942 23.5899L57.0325 21.3531L57.9103 20.8187L59.272 23.0555ZM61.5013 19.1632L57.2681 21.7402L56.6028 20.6473L60.8359 18.0703L61.5013 19.1632ZM60.8124 21.7226L59.9664 22.2376L58.7802 20.2891L59.6262 19.7741L60.8124 21.7226ZM62.6322 21.0209L61.7511 21.5573L60.3846 19.3124L61.2656 18.7761L62.6322 21.0209Z" fill="url(#paint14_linear_4481_3289)"/>
<path d="M59.7553 26.8822L59.3972 25.8495L60.3707 25.5198L60.7263 26.5455C60.7968 26.7487 60.9033 26.904 61.0457 27.0112C61.189 27.1168 61.3686 27.1736 61.5846 27.1817C61.8001 27.1885 62.053 27.1416 62.3432 27.041L62.5071 26.9842C62.7938 26.8848 63.0196 26.7657 63.1847 26.6268C63.349 26.4896 63.4541 26.3334 63.4999 26.1582C63.5446 25.9835 63.5301 25.7898 63.4564 25.5771L63.0983 24.5444L64.0728 24.2065L64.4309 25.2392C64.5796 25.668 64.6146 26.0803 64.536 26.4761C64.4563 26.8722 64.279 27.2226 64.0042 27.5271C63.7295 27.8317 63.3701 28.0609 62.926 28.2149L62.7691 28.2693C62.3274 28.4225 61.9038 28.4647 61.4983 28.3961C61.0928 28.3274 60.7373 28.1638 60.4318 27.9051C60.1271 27.6449 59.9016 27.3039 59.7553 26.8822ZM64.3215 24.9238L59.6392 26.5474L59.22 25.3384L63.9023 23.7148L64.3215 24.9238Z" fill="url(#paint15_linear_4481_3289)"/>
<path d="M62.5487 33.4372C62.6365 33.4275 62.7123 33.4003 62.7761 33.3557C62.84 33.311 62.8988 33.2269 62.9527 33.1034C63.0065 32.9798 63.0598 32.795 63.1126 32.5489C63.1608 32.3296 63.22 32.1141 63.2904 31.9023C63.3608 31.6918 63.4496 31.4993 63.5566 31.3248C63.6637 31.1515 63.7972 31.0078 63.9572 30.8937C64.1173 30.7809 64.3111 30.7118 64.5385 30.6866C64.8277 30.6545 65.0854 30.7103 65.3115 30.8541C65.5389 30.9978 65.7254 31.2073 65.8711 31.4826C66.0169 31.7592 66.1102 32.081 66.1509 32.4481C66.1913 32.8114 66.1657 33.1389 66.0742 33.4306C65.9829 33.7234 65.8304 33.9618 65.6169 34.1457C65.4047 34.3306 65.1386 34.4408 64.8185 34.4764L64.6781 33.2121C64.7844 33.2003 64.8759 33.1676 64.9525 33.1141C65.0279 33.0607 65.0834 32.9863 65.1191 32.891C65.1535 32.7946 65.1628 32.6754 65.147 32.5332C65.1316 32.3948 65.0996 32.2814 65.051 32.1929C65.0023 32.1033 64.9444 32.0384 64.8774 31.9983C64.8105 31.9594 64.7388 31.9442 64.6622 31.9527C64.5744 31.9625 64.5018 32.0068 64.4442 32.0858C64.3868 32.166 64.3368 32.2735 64.2943 32.4083C64.2529 32.543 64.2132 32.6982 64.1752 32.8738C64.1017 33.2373 64.0031 33.5498 63.8795 33.8112C63.7571 34.0725 63.5999 34.2789 63.4077 34.4303C63.2156 34.5818 62.9787 34.6731 62.6969 34.7044C62.3966 34.7377 62.1337 34.6912 61.9082 34.5649C61.684 34.4384 61.5022 34.2434 61.3628 33.9798C61.2249 33.7174 61.1352 33.3996 61.0937 33.0264C61.0652 32.7693 61.0694 32.5142 61.1064 32.2611C61.1444 32.0067 61.2216 31.7717 61.3377 31.5561C61.4528 31.3419 61.6113 31.1635 61.8132 31.021C62.0163 30.8784 62.2674 30.7905 62.5665 30.7573L62.7077 32.029C62.5729 32.0439 62.4623 32.0731 62.3758 32.1165C62.2892 32.1586 62.2218 32.2168 62.1737 32.2909C62.1257 32.3651 62.0955 32.4541 62.0833 32.5581C62.0711 32.662 62.0724 32.7813 62.0874 32.916C62.103 33.0569 62.1345 33.166 62.1819 33.2434C62.2294 33.3219 62.2854 33.3757 62.3499 33.4049C62.4157 33.4338 62.482 33.4446 62.5487 33.4372Z" fill="url(#paint16_linear_4481_3289)"/>
<path d="M20.1149 62.4191L19.6509 63.2L17.7604 62.0766L18.2244 61.2957L20.1149 62.4191ZM20.3357 58.5169L18.1004 62.2786L17.1319 61.7031L19.3672 57.9414L20.3357 58.5169Z" fill="url(#paint17_linear_4481_3289)"/>
<path d="M25.8671 63.3743L25.8214 63.4946C25.6602 63.9188 25.4446 64.2533 25.1747 64.4979C24.9044 64.7437 24.6021 64.8968 24.2678 64.9574C23.9336 65.0179 23.5915 64.9817 23.2416 64.8487C22.8883 64.7144 22.6056 64.5132 22.3935 64.2451C22.1827 63.9774 22.0578 63.6619 22.0189 63.2986C21.9796 62.9365 22.0406 62.5433 22.2018 62.119L22.2475 61.9987C22.4083 61.5756 22.6233 61.241 22.8925 60.9947C23.1616 60.7485 23.4642 60.5948 23.8 60.5335C24.1343 60.473 24.4787 60.5101 24.8332 60.6448C25.1831 60.7778 25.4635 60.9781 25.6743 61.2458C25.8836 61.5142 26.0083 61.8303 26.0483 62.194C26.0883 62.5577 26.0279 62.9512 25.8671 63.3743ZM24.7509 63.0877L24.7986 62.9622C24.8967 62.7042 24.9498 62.4769 24.9579 62.2805C24.9672 62.0845 24.9334 61.9213 24.8566 61.791C24.7797 61.6607 24.6628 61.5657 24.5059 61.5061C24.3409 61.4434 24.1875 61.4357 24.0458 61.4829C23.903 61.5297 23.7711 61.6299 23.6502 61.7835C23.5305 61.9376 23.4216 62.1436 23.3236 62.4016L23.2758 62.5272C23.1795 62.7806 23.1254 63.0054 23.1133 63.2017C23.1019 63.3996 23.1337 63.5646 23.2085 63.6968C23.2833 63.829 23.4032 63.9264 23.5683 63.9892C23.7252 64.0488 23.8761 64.0543 24.021 64.0056C24.1647 63.9564 24.298 63.8541 24.421 63.6986C24.5446 63.5448 24.6546 63.3411 24.7509 63.0877Z" fill="url(#paint18_linear_4481_3289)"/>
<path d="M31.913 62.4305L31.2 66.7478L30.0903 66.5645L29.0766 63.8317L28.6641 66.329L27.5526 66.1454L28.2656 61.8281L29.3771 62.0117L30.3909 64.7445L30.8034 62.2472L31.913 62.4305Z" fill="url(#paint19_linear_4481_3289)"/>
<path d="M35.3002 66.8633L34.3363 66.8925L34.3144 65.9844L35.2727 65.9554C35.4628 65.9497 35.6218 65.9007 35.7497 65.8085C35.8775 65.7175 35.9729 65.5815 36.0359 65.4005C36.0989 65.2207 36.1262 64.9953 36.118 64.7243L36.1134 64.5715C36.1053 64.303 36.065 64.0815 35.9925 63.9071C35.92 63.7314 35.8153 63.6014 35.6784 63.5173C35.5427 63.433 35.3761 63.3939 35.1785 63.3999L34.2146 63.4291L34.1871 62.5193L35.1509 62.4901C35.5511 62.478 35.9075 62.5574 36.2199 62.7283C36.5336 62.8992 36.7823 63.1405 36.9659 63.4521C37.1495 63.765 37.2476 64.1284 37.2601 64.5423L37.2646 64.6896C37.2771 65.1023 37.2012 65.4703 37.0368 65.7938C36.8725 66.1184 36.6408 66.3749 36.3417 66.5631C36.0426 66.7513 35.6954 66.8514 35.3002 66.8633ZM34.8564 62.499L34.9888 66.8728L33.859 66.907L33.7266 62.5332L34.8564 62.499Z" fill="url(#paint20_linear_4481_3289)"/>
<path d="M43.0016 63.457L43.0301 63.5825C43.1305 64.0251 43.1359 64.423 43.0464 64.7761C42.9572 65.1304 42.7901 65.4252 42.5452 65.6606C42.3002 65.8959 41.9952 66.055 41.6302 66.1378C41.2615 66.2214 40.9147 66.2102 40.5898 66.1041C40.266 65.9978 39.9874 65.8041 39.7541 65.5229C39.521 65.243 39.3543 64.8818 39.2539 64.4391L39.2254 64.3136C39.1252 63.8722 39.1192 63.4745 39.2072 63.1205C39.2952 62.7664 39.4621 62.471 39.708 62.2342C39.953 61.9988 40.2604 61.8392 40.6303 61.7553C40.9953 61.6725 41.3397 61.6842 41.6634 61.7906C41.9863 61.8984 42.265 62.0928 42.4995 62.3736C42.7341 62.6545 42.9015 63.0156 43.0016 63.457ZM41.9132 63.8359L41.8835 63.7049C41.8224 63.4357 41.7409 63.217 41.639 63.0489C41.5384 62.8804 41.42 62.7632 41.2839 62.6972C41.1477 62.6312 40.9978 62.6167 40.8341 62.6539C40.6619 62.6929 40.5299 62.7713 40.438 62.8891C40.3449 63.0071 40.2905 63.1635 40.2748 63.3583C40.2603 63.5529 40.2836 63.7848 40.3446 64.054L40.3743 64.185C40.4343 64.4493 40.5136 64.6666 40.6121 64.8368C40.7121 65.0079 40.8299 65.1278 40.9653 65.1965C41.1007 65.2653 41.2546 65.2801 41.4268 65.241C41.5905 65.2039 41.7192 65.125 41.8129 65.0042C41.9055 64.8838 41.9599 64.7248 41.9763 64.5273C41.9942 64.3307 41.9732 64.1002 41.9132 63.8359Z" fill="url(#paint21_linear_4481_3289)"/>
<path d="M47.5123 59.3238L49.3068 63.3146L48.281 63.7759L45.9246 62.0603L46.9626 64.3687L45.9351 64.8307L44.1406 60.8398L45.1681 60.3778L47.5245 62.0935L46.4865 59.785L47.5123 59.3238Z" fill="url(#paint22_linear_4481_3289)"/>
</g>
<defs>
<linearGradient id="paint0_linear_4481_3289" x1="19.3594" y1="30.1641" x2="19.3594" y2="13.2035" gradientUnits="userSpaceOnUse">
<stop stop-color="#17EAD9"/>
<stop offset="1" stop-color="#6078EA"/>
</linearGradient>
<linearGradient id="paint1_linear_4481_3289" x1="40.5105" y1="19.2064" x2="53.8683" y2="32.5642" gradientUnits="userSpaceOnUse">
<stop stop-color="#21DFFF"/>
<stop offset="0.279793" stop-color="#21DFFF"/>
<stop offset="1" stop-color="#0693FF"/>
</linearGradient>
<linearGradient id="paint2_linear_4481_3289" x1="16.9018" y1="49.8754" x2="27.3824" y2="39.3949" gradientUnits="userSpaceOnUse">
<stop stop-color="#21DFFF"/>
<stop offset="0.279793" stop-color="#21DFFF"/>
<stop offset="1" stop-color="#0693FF"/>
</linearGradient>
<linearGradient id="paint3_linear_4481_3289" x1="37.3616" y1="54.4614" x2="50.7201" y2="41.1029" gradientUnits="userSpaceOnUse">
<stop stop-color="#21DFFF"/>
<stop offset="0.279793" stop-color="#21DFFF"/>
<stop offset="1" stop-color="#0693FF"/>
</linearGradient>
<linearGradient id="paint4_linear_4481_3289" x1="1.83599" y1="34.1362" x2="9.62993" y2="35.2762" gradientUnits="userSpaceOnUse">
<stop stop-color="#17EAD9"/>
<stop offset="1" stop-color="#6078EA"/>
</linearGradient>
<linearGradient id="paint5_linear_4481_3289" x1="3.67984" y1="25.0868" x2="10.9317" y2="28.1617" gradientUnits="userSpaceOnUse">
<stop stop-color="#17EAD9"/>
<stop offset="1" stop-color="#6078EA"/>
</linearGradient>
<linearGradient id="paint6_linear_4481_3289" x1="8.99132" y1="15.3962" x2="14.7712" y2="20.7477" gradientUnits="userSpaceOnUse">
<stop stop-color="#17EAD9"/>
<stop offset="1" stop-color="#6078EA"/>
</linearGradient>
<linearGradient id="paint7_linear_4481_3289" x1="14.5231" y1="9.97115" x2="18.9885" y2="16.46" gradientUnits="userSpaceOnUse">
<stop stop-color="#17EAD9"/>
<stop offset="1" stop-color="#6078EA"/>
</linearGradient>
<linearGradient id="paint8_linear_4481_3289" x1="20.2081" y1="6.38238" x2="23.1571" y2="13.6864" gradientUnits="userSpaceOnUse">
<stop stop-color="#17EAD9"/>
<stop offset="1" stop-color="#6078EA"/>
</linearGradient>
<linearGradient id="paint9_linear_4481_3289" x1="27.3819" y1="3.86666" x2="28.6871" y2="11.6346" gradientUnits="userSpaceOnUse">
<stop stop-color="#17EAD9"/>
<stop offset="1" stop-color="#6078EA"/>
</linearGradient>
<linearGradient id="paint10_linear_4481_3289" x1="32.9364" y1="3.07205" x2="32.826" y2="10.9482" gradientUnits="userSpaceOnUse">
<stop stop-color="#17EAD9"/>
<stop offset="1" stop-color="#6078EA"/>
</linearGradient>
<linearGradient id="paint11_linear_4481_3289" x1="40.2892" y1="3.49033" x2="38.3711" y2="11.1301" gradientUnits="userSpaceOnUse">
<stop stop-color="#17EAD9"/>
<stop offset="1" stop-color="#6078EA"/>
</linearGradient>
<linearGradient id="paint12_linear_4481_3289" x1="51.2188" y1="7.47574" x2="46.7579" y2="13.9677" gradientUnits="userSpaceOnUse">
<stop stop-color="#17EAD9"/>
<stop offset="1" stop-color="#6078EA"/>
</linearGradient>
<linearGradient id="paint13_linear_4481_3289" x1="57.387" y1="12.1586" x2="51.6109" y2="17.5142" gradientUnits="userSpaceOnUse">
<stop stop-color="#17EAD9"/>
<stop offset="1" stop-color="#6078EA"/>
</linearGradient>
<linearGradient id="paint14_linear_4481_3289" x1="61.6551" y1="17.1612" x2="54.9269" y2="21.2571" gradientUnits="userSpaceOnUse">
<stop stop-color="#17EAD9"/>
<stop offset="1" stop-color="#6078EA"/>
</linearGradient>
<linearGradient id="paint15_linear_4481_3289" x1="64.8953" y1="22.9995" x2="57.4531" y2="25.5801" gradientUnits="userSpaceOnUse">
<stop stop-color="#17EAD9"/>
<stop offset="1" stop-color="#6078EA"/>
</linearGradient>
<linearGradient id="paint16_linear_4481_3289" x1="66.9963" y1="30.0532" x2="59.1675" y2="30.9223" gradientUnits="userSpaceOnUse">
<stop stop-color="#17EAD9"/>
<stop offset="1" stop-color="#6078EA"/>
</linearGradient>
<linearGradient id="paint17_linear_4481_3289" x1="19.6299" y1="56.8932" x2="16.0769" y2="62.8725" gradientUnits="userSpaceOnUse">
<stop stop-color="#17EAD9"/>
<stop offset="1" stop-color="#6078EA"/>
</linearGradient>
<linearGradient id="paint18_linear_4481_3289" x1="23.1901" y1="58.9771" x2="20.7193" y2="65.4788" gradientUnits="userSpaceOnUse">
<stop stop-color="#17EAD9"/>
<stop offset="1" stop-color="#6078EA"/>
</linearGradient>
<linearGradient id="paint19_linear_4481_3289" x1="28.1289" y1="60.7562" x2="26.9955" y2="67.6186" gradientUnits="userSpaceOnUse">
<stop stop-color="#17EAD9"/>
<stop offset="1" stop-color="#6078EA"/>
</linearGradient>
<linearGradient id="paint20_linear_4481_3289" x1="33.3858" y1="61.5078" x2="33.5964" y2="68.4599" gradientUnits="userSpaceOnUse">
<stop stop-color="#17EAD9"/>
<stop offset="1" stop-color="#6078EA"/>
</linearGradient>
<linearGradient id="paint21_linear_4481_3289" x1="38.3389" y1="61.2751" x2="39.8776" y2="68.0581" gradientUnits="userSpaceOnUse">
<stop stop-color="#17EAD9"/>
<stop offset="1" stop-color="#6078EA"/>
</linearGradient>
<linearGradient id="paint22_linear_4481_3289" x1="43.4337" y1="60.0225" x2="46.2861" y2="66.3661" gradientUnits="userSpaceOnUse">
<stop stop-color="#17EAD9"/>
<stop offset="1" stop-color="#6078EA"/>
</linearGradient>
<clipPath id="clip0_4481_3289">
<rect width="70.6796" height="70" fill="white"/>
</clipPath>
</defs>
</svg>
