<svg width="97" height="33" viewBox="0 0 97 33" fill="none" xmlns="http://www.w3.org/2000/svg">
<g clip-path="url(#clip0_4687_1129)">
<path d="M74.2917 9.19388L69.1103 9.17663C68.8055 9.17562 68.4997 9.47939 68.3463 9.78367L66.1682 23.1872C66.1672 23.492 66.319 23.6449 66.6238 23.6459L69.3669 23.6551C69.6717 23.6561 69.8246 23.5042 69.8256 23.1994L70.4479 19.3916C70.4489 19.0868 70.7547 18.783 71.2119 18.7845L72.8882 18.7901C76.3933 18.8018 78.38 17.1321 78.8483 13.7809C79.1577 12.4104 78.8569 11.1902 78.2499 10.4262C77.3381 9.66121 75.9681 9.19946 74.2917 9.19388ZM74.8845 14.2249C74.5737 16.0526 73.2021 16.0481 71.8306 16.0435L70.9162 16.0404L71.5375 12.5374C71.538 12.385 71.6909 12.2331 71.9957 12.2341L72.3005 12.2352C73.2148 12.2382 74.1292 12.2413 74.5843 12.8523C74.8886 13.0058 74.8871 13.4629 74.8845 14.2249Z" fill="#139AD6"/>
<path d="M36.9558 9.06937L31.7744 9.05212C31.4696 9.05111 31.1638 9.35488 31.0104 9.65916L28.8322 23.0627C28.8312 23.3675 28.9831 23.5204 29.2879 23.5214L31.7262 23.5295C32.031 23.5306 32.3368 23.2268 32.4902 22.9225L33.1119 19.2671C33.113 18.9623 33.4188 18.6585 33.8759 18.66L35.5523 18.6656C39.0573 18.6773 41.044 17.0075 41.5124 13.6564C41.8217 12.2859 41.521 11.0657 40.914 10.3017C40.0021 9.5367 38.7845 9.07546 36.9558 9.06937ZM37.5486 14.1004C37.2377 15.9281 35.8662 15.9235 34.4947 15.919L33.7327 15.9164L34.3539 12.4134C34.3544 12.261 34.5073 12.1091 34.8121 12.1101L35.1169 12.1112C36.0313 12.1142 36.9456 12.1172 37.4008 12.7283C37.5527 12.8812 37.7035 13.3389 37.5486 14.1004ZM52.6361 13.9982L50.1978 13.9901C50.0454 13.9896 49.7401 14.141 49.7396 14.2934L49.5847 15.0548L49.4333 14.7495C48.8263 13.9855 47.7605 13.6772 46.5414 13.6731C43.7983 13.664 41.3529 15.7894 40.8861 18.6834C40.5762 20.2063 41.0288 21.5794 41.7877 22.4963C42.5467 23.4132 43.6124 23.7215 44.984 23.7261C47.2699 23.7337 48.4936 22.3662 48.4936 22.3662L48.3387 23.1277C48.3376 23.4324 48.4895 23.5853 48.7943 23.5864L51.0802 23.594C51.385 23.595 51.6908 23.2912 51.8442 22.9869L53.2442 14.4574C53.0923 14.3045 52.7885 13.9987 52.6361 13.9982ZM49.1148 18.8632C48.8055 20.2337 47.7352 21.2969 46.2112 21.2918C45.4493 21.2893 44.8407 20.9825 44.5369 20.6767C44.2337 20.2185 44.0833 19.6084 44.0858 18.8464C44.2428 17.4754 45.4655 16.4127 46.837 16.4173C47.599 16.4198 48.0552 16.7261 48.5113 17.0324C48.967 17.4911 49.1169 18.2536 49.1148 18.8632Z" fill="#263B80"/>
<path d="M89.821 14.1222L87.3827 14.1141C87.2303 14.1136 86.925 14.265 86.9245 14.4174L86.7695 15.1789L86.6182 14.8736C86.0111 14.1096 84.9454 13.8012 83.7262 13.7972C80.9831 13.788 78.5377 15.9134 78.0709 18.8074C77.7611 20.3303 78.2137 21.7034 78.9726 22.6203C79.7315 23.5372 80.7973 23.8455 82.1688 23.8501C84.4547 23.8577 85.6784 22.4902 85.6784 22.4902L85.5235 23.2517C85.5225 23.5565 85.6744 23.7094 85.9792 23.7104L88.2651 23.718C88.5699 23.719 88.8757 23.4152 89.0291 23.111L90.429 14.5815C90.2771 14.4286 90.1258 14.1233 89.821 14.1222ZM86.2997 18.9872C85.9903 20.3577 84.92 21.4209 83.3961 21.4158C82.6341 21.4133 82.0255 21.1065 81.7218 20.8007C81.4185 20.3425 81.2681 19.7324 81.2707 18.9704C81.4276 17.5994 82.6503 16.5367 84.0219 16.5413C84.7839 16.5438 85.24 16.8501 85.6962 17.1564C86.3042 17.6156 86.4541 18.3781 86.2997 18.9872Z" fill="#139AD6"/>
<path d="M65.8945 14.0425L63.3038 14.0339C62.999 14.0328 62.8461 14.1847 62.6932 14.3366L59.3233 19.5068L57.8156 14.6252C57.6642 14.3199 57.5123 14.167 57.0551 14.1655L54.6168 14.1573C54.312 14.1563 54.1586 14.4606 54.1576 14.7654L56.8738 22.8514L54.2709 26.5002C54.1175 26.8045 54.2684 27.2622 54.5732 27.2632L57.0115 27.2713C57.3163 27.2723 57.4692 27.1205 57.6221 26.9686L66.0438 14.9574C66.5025 14.5017 66.1993 14.0435 65.8945 14.0425Z" fill="#263B80"/>
<path d="M92.73 9.71225L90.5508 23.4206C90.5498 23.7254 90.7017 23.8783 91.0064 23.8793L93.14 23.8864C93.4447 23.8874 93.7505 23.5836 93.904 23.2794L96.0821 9.87581C96.0831 9.57102 95.9312 9.41812 95.6265 9.4171L93.1881 9.40899C93.0363 9.25608 92.8834 9.40797 92.73 9.71225Z" fill="#139AD6"/>
<path d="M17.6169 4.43321C16.5542 3.21051 14.5751 2.59434 11.832 2.58521L4.21229 2.55984C3.75511 2.55832 3.29641 3.01398 3.14249 3.47065L0.0281515 23.4241C0.0266295 23.8813 0.330403 24.1871 0.63519 24.1881L5.3594 24.2038L6.60341 16.7406L6.6024 17.0454C6.75631 16.5887 7.21502 16.133 7.6722 16.1346L9.95811 16.1422C14.3775 16.1569 17.7363 14.3393 18.8198 9.31387L18.8213 8.85669C18.6689 8.85618 18.6689 8.85618 18.8213 8.85669C18.9803 6.87608 18.6796 5.65591 17.6169 4.43321Z" fill="#263B80"/>
<path d="M18.6686 8.85621L18.6671 9.31339C17.583 14.4912 14.2248 16.1564 9.80538 16.1417L7.51947 16.1341C7.06229 16.1326 6.60358 16.5882 6.44967 17.0449L4.89478 26.3358C4.89377 26.6406 5.04515 26.9459 5.50233 26.9475L9.46457 26.9606C9.92175 26.9622 10.3799 26.6589 10.3815 26.2017L10.382 26.0493L11.1597 21.3276L11.1607 21.0229C11.1622 20.5657 11.6204 20.2624 12.0776 20.2639L12.6872 20.266C16.497 20.2786 19.55 18.7649 20.3272 14.1956C20.638 12.3679 20.4912 10.691 19.5804 9.62122C19.429 9.31593 19.1252 9.01012 18.6686 8.85621Z" fill="#139AD6"/>
<path d="M17.6036 8.39532C17.4513 8.39481 17.2994 8.24191 17.147 8.2414C16.9946 8.2409 16.8422 8.24039 16.6903 8.08749C16.0812 7.93306 15.4717 7.93104 14.7097 7.9285L8.76633 7.90871C8.61393 7.90821 8.46154 7.9077 8.30864 8.05958C8.00334 8.21096 7.84993 8.51524 7.84892 8.82003L6.60339 16.7405L6.60237 17.0452C6.75629 16.5886 7.21499 16.1329 7.67217 16.1344L9.95808 16.142C14.3775 16.1568 17.7363 14.3392 18.8198 9.31374C18.8203 9.16135 18.8208 9.00895 18.9737 8.85707C18.6694 8.70366 18.5175 8.55076 18.2127 8.54974C17.756 8.39583 17.756 8.39583 17.6036 8.39532Z" fill="#232C65"/>
</g>
<defs>
<clipPath id="clip0_4687_1129">
<rect width="96.0087" height="32.2529" fill="white" transform="translate(0.105469) rotate(0.190743)"/>
</clipPath>
</defs>
</svg>
