<svg width="354" height="225" viewBox="0 0 354 225" fill="none" xmlns="http://www.w3.org/2000/svg">
<path d="M5.76361 88.6232C5.30839 97.2582 4.85317 106.132 0.0625 114.245V111.559C3.63924 104.382 4.04027 96.6057 4.45214 88.5579C5.09162 76.3123 5.75277 63.6425 18.7266 53.2348C21.7289 50.8205 24.7095 49.0913 27.6576 47.8841L27.6468 35.8234C27.6468 33.5287 29.511 31.669 31.7871 31.669L58.4284 31.6473C60.7045 31.6473 62.5688 33.4961 62.5688 35.7908L62.5796 48.1016C72.5837 49.5263 82.2951 49.4611 92.6351 41.1741C105.154 31.147 105.761 19.3146 106.411 6.81884C106.53 4.61114 106.649 2.3817 106.823 0.152252H108.145C107.95 2.35995 107.831 4.62202 107.712 6.88409C107.094 19.1406 106.433 31.8104 93.4588 42.2072C82.837 50.7226 72.5728 50.8205 62.5905 49.4284V55.1489C62.5905 57.4327 60.7262 59.3032 58.461 59.3032L31.8196 59.325C29.5327 59.325 27.6685 57.4544 27.6685 55.1815V49.2653C24.9913 50.4398 22.2925 52.0603 19.5503 54.268C7.02089 64.295 6.41393 76.1057 5.76361 88.6232Z" fill="url(#paint0_linear_5109_1558)"/>
<path d="M3.94625 178.802C2.65645 178.573 1.38833 178.356 0.109375 178.16V176.833C1.4642 177.04 2.81903 177.279 4.16302 177.518C16.4648 179.639 28.0838 181.651 40.5916 171.613C53.1102 161.586 53.7172 149.764 54.3675 137.258C55.007 125.012 55.6573 112.342 68.6311 101.935C81.6049 91.5269 94.0585 93.6802 106.111 95.7683C118.413 97.889 130.032 99.9118 142.54 89.8847C155.047 79.8577 155.665 68.0253 156.316 55.5295C156.955 43.2839 157.594 30.6141 170.579 20.2064C183.553 9.80956 196.007 11.952 208.048 14.0401C220.35 16.1608 231.969 18.1836 244.477 8.1565C247.707 5.56817 250.135 2.87109 251.977 0.0652466H253.516C251.554 3.24085 248.899 6.29682 245.311 9.18966C232.338 19.5865 219.884 17.4223 207.831 15.356C195.53 13.2135 183.911 11.2125 171.403 21.2395C158.884 31.2666 158.277 43.0881 157.627 55.5948C156.987 67.8404 156.337 80.5102 143.363 90.9179C130.39 101.315 117.947 99.1723 105.894 97.0842C93.5924 94.9417 81.9626 92.9407 69.444 102.968C56.9254 112.995 56.3184 124.816 55.6681 137.323C55.0286 149.569 54.3892 162.238 41.4045 172.646C28.4415 183.043 15.9879 180.89 3.94625 178.802Z" fill="url(#paint1_linear_5109_1558)"/>
<path d="M272.703 34.812L272.757 34.4749H279.792C280.745 34.5184 281.515 34.812 281.775 35.8343L283.314 43.2186C281.808 39.347 278.177 36.1388 272.703 34.812Z" fill="url(#paint2_linear_5109_1558)"/>
<path d="M283.494 44.3062L283.971 46.0353L288.415 34.638H293.217L286.074 51.299H281.283L277.219 37.3786C280.134 39.26 282.616 42.229 283.494 44.3062Z" fill="url(#paint3_linear_5109_1558)"/>
<path d="M301.48 39.8255C301.501 36.5847 304.666 34.3008 309.143 34.3008C310.898 34.3008 312.318 34.6706 313.207 35.0077L312.589 38.6184L312.177 38.4335C311.332 38.0963 310.259 37.781 308.774 37.7918C307.007 37.7918 306.173 38.5422 306.173 39.2382C306.162 40.0104 307.148 40.5324 308.731 41.3046C311.343 42.5009 312.557 43.9364 312.524 45.8505C312.503 49.3197 309.403 51.56 304.645 51.56C302.607 51.5383 300.656 51.125 299.594 50.6682L300.233 46.9271L300.808 47.1881C302.293 47.808 303.268 48.069 305.078 48.069C306.379 48.069 307.777 47.5579 307.799 46.4377C307.809 45.6982 307.202 45.1762 305.447 44.3605C303.723 43.5666 301.458 42.2181 301.48 39.8255Z" fill="url(#paint4_linear_5109_1558)"/>
<path d="M312.242 51.299L318.962 35.9757C319.439 34.899 320.263 34.5945 321.347 34.5945H324.848L328.533 51.2881H324.316C324.316 51.2881 323.905 49.3741 323.764 48.7977H317.954C317.781 49.2327 317 51.2881 317 51.2881L312.242 51.299Z" fill="url(#paint5_linear_5109_1558)"/>
<path d="M350.899 10.4077C352.569 13.4202 353.501 16.9003 353.501 20.587L353.522 44.7412C353.154 47.8515 352.991 50.9728 352.829 54.0613C352.178 66.5789 351.571 78.3895 339.053 88.4166C326.534 98.4436 314.915 96.4317 302.624 94.3001C290.583 92.2121 278.129 90.0587 265.155 100.466C252.17 110.863 251.52 123.533 250.891 135.79C250.241 148.285 249.634 160.118 237.116 170.145C224.597 180.172 212.978 178.16 200.687 176.028C188.635 173.94 176.181 171.787 163.207 182.195C150.233 192.591 149.572 205.261 148.943 217.518C148.824 219.78 148.716 222.031 148.51 224.25L77.3002 224.304C78.0373 223.804 78.7851 223.249 79.5222 222.651C92.5068 212.254 93.1571 199.584 93.7858 187.328C94.4361 174.81 95.0431 163 107.562 152.973C120.08 142.946 131.71 144.947 144.012 147.089C156.064 149.177 168.507 151.33 181.481 140.923C194.455 130.526 195.116 117.856 195.745 105.6C196.395 93.0821 197.002 81.2715 209.521 71.2444C222.039 61.2173 233.658 63.2184 245.949 65.3608C258.002 67.438 270.455 69.6022 283.429 59.1945C287.775 55.7035 290.745 51.9624 292.783 48.0582L292.23 51.299H296.761L299.6 34.6054H296.826C297.324 31.0382 297.508 27.4385 297.682 23.8714C298.105 15.4974 298.538 7.43875 302.527 0.021759H301.074C297.216 7.62363 296.793 15.8019 296.381 23.8061C296.186 27.482 296.002 31.0926 295.514 34.6054H295.07L293.693 42.7184C291.829 48.1887 288.577 53.3762 282.616 58.1614C270.098 68.1884 258.479 66.1765 246.188 64.0449C234.146 61.9569 221.692 59.8035 208.718 70.2112C195.734 80.6081 195.083 93.2778 194.455 105.534C193.805 118.03 193.198 129.863 180.679 139.89C168.16 149.917 156.541 147.905 144.25 145.773C132.198 143.685 119.744 141.532 106.77 151.939C93.7966 162.347 93.1029 175.028 92.4743 187.273C91.824 199.791 91.217 211.602 78.6984 221.629C77.4303 222.64 76.1839 223.543 74.9158 224.304L20.9394 224.348C13.2657 224.358 6.53493 220.258 2.82812 214.136C6.45906 220.628 13.3741 225.011 21.308 225L332.842 224.772C344.537 224.761 354.01 215.234 353.999 203.51L353.869 21.2178C353.869 17.2592 352.796 13.5616 350.899 10.4077ZM353.642 202.858C353.652 214.592 344.169 224.108 332.485 224.119L190.087 224.217C190.152 224.152 190.228 224.097 190.314 224.032C202.833 214.005 214.463 216.006 226.765 218.149C238.817 220.237 251.26 222.39 264.234 211.982C277.208 201.585 277.869 188.916 278.497 176.659C279.148 164.142 279.755 152.331 292.273 142.304C304.792 132.277 316.411 134.278 328.702 136.42C336.82 137.812 345.101 139.248 353.598 136.866L353.642 202.858ZM353.587 135.539C345.35 137.965 337.286 136.562 328.908 135.126C316.866 133.038 304.413 130.885 291.439 141.292C278.454 151.689 277.804 164.359 277.175 176.616C276.525 189.111 275.918 200.944 263.399 210.971C250.881 220.998 239.262 218.986 226.971 216.854C214.918 214.766 202.465 212.613 189.491 223.021C188.992 223.412 188.504 223.825 188.049 224.239L149.843 224.271C150.027 222.042 150.147 219.823 150.255 217.605C150.905 205.087 151.512 193.277 164.031 183.25C176.549 173.223 188.168 175.224 200.481 177.366C212.534 179.454 224.976 181.607 237.95 171.2C250.924 160.803 251.585 148.133 252.214 135.877C252.864 123.359 253.471 111.548 265.99 101.521C278.508 91.4943 290.127 93.4954 302.418 95.6378C314.471 97.715 326.924 99.8792 339.898 89.4715C349.816 81.5216 352.525 72.2449 353.544 62.8595L353.587 135.539Z" fill="url(#paint6_linear_5109_1558)"/>
<path d="M106.825 0.163116C106.641 2.39256 106.522 4.61113 106.414 6.8297C105.763 19.3255 105.156 31.1578 92.6377 41.1849C82.2976 49.461 72.5862 49.5372 62.5822 48.1125L62.5713 35.8016C62.5713 33.5069 60.7071 31.6581 58.431 31.6581L31.7897 31.6799C29.5027 31.6799 27.6385 33.5395 27.6493 35.8342L27.6602 47.895C24.7121 49.113 21.7314 50.8313 18.7291 53.2457C5.75531 63.6425 5.09416 76.3123 4.45468 88.5579C4.04281 96.6057 3.64178 104.382 0.065041 111.559L9.28099e-06 21.4788C-0.0108293 9.76605 9.47296 0.228369 21.157 0.228369L106.825 0.163116Z" fill="url(#paint7_linear_5109_1558)"/>
<path d="M251.997 0.0543823C250.144 2.86022 247.727 5.55731 244.497 8.14564C231.978 18.1727 220.359 16.1608 208.068 14.0292C196.026 11.9411 183.573 9.78782 170.599 20.1955C157.614 30.5924 156.964 43.2621 156.335 55.5186C155.685 68.0144 155.078 79.8468 142.56 89.8739C130.041 99.9009 118.422 97.889 106.131 95.7574C94.0784 93.6694 81.6248 91.516 68.651 101.924C55.6772 112.331 55.016 124.99 54.3874 137.247C53.7371 149.764 53.1301 161.575 40.6115 171.602C28.0929 181.629 16.4739 179.628 4.18293 177.507C2.82811 177.268 1.47328 177.04 0.129292 176.822L0.0859375 114.235C4.88744 106.122 5.34267 97.2582 5.78705 88.6123C6.43737 76.0948 7.04433 64.2842 19.5629 54.2571C22.3051 52.0603 25.0039 50.429 27.6811 49.2544V55.1706C27.6811 57.4545 29.5453 59.3141 31.8322 59.3141L58.4736 59.2924C60.7497 59.2924 62.6031 57.4218 62.6031 55.138V49.4176C72.5746 50.8096 82.8496 50.7117 93.4715 42.1963C106.434 31.8104 107.096 19.1406 107.724 6.89497C107.843 4.6329 107.952 2.38171 108.158 0.163136L251.997 0.0543823Z" fill="url(#paint8_linear_5109_1558)"/>
<path d="M253.535 0.0543851C251.573 3.22999 248.918 6.28596 245.33 9.1788C232.356 19.5756 219.903 17.4114 207.85 15.3451C195.548 13.2027 183.929 11.2016 171.421 21.2287C158.903 31.2557 158.296 43.0772 157.646 55.5839C157.006 67.8295 156.356 80.4993 143.382 90.907C130.408 101.304 117.965 99.1614 105.913 97.0733C93.6111 94.9309 81.9812 92.9298 69.4626 102.957C56.944 112.984 56.3371 124.805 55.6868 137.312C55.0473 149.558 54.4078 162.228 41.4231 172.635C28.4493 183.032 15.9958 180.89 3.95406 178.802C2.66426 178.573 1.39614 178.356 0.117188 178.16L0.138865 203.771C0.138865 207.415 1.06015 210.851 2.69678 213.853C2.75097 213.962 2.78349 214.049 2.85936 214.125C6.56616 220.247 13.2861 224.337 20.9707 224.337L74.947 224.293C76.2043 223.532 77.4507 222.629 78.7297 221.618C91.2482 211.591 91.8552 199.769 92.5055 187.263C93.145 175.017 93.7953 162.347 106.769 151.939C119.743 141.532 132.197 143.685 144.249 145.773C156.551 147.894 168.17 149.917 180.678 139.89C193.185 129.862 193.803 118.03 194.454 105.534C195.093 93.2887 195.732 80.6189 208.717 70.2112C221.691 59.8144 234.145 61.9568 246.186 64.0449C258.488 66.1656 270.107 68.1884 282.615 58.1614C288.587 53.3762 291.839 48.1887 293.692 42.7184L295.068 34.6054H295.513C296.011 31.0926 296.196 27.482 296.38 23.8061C296.792 15.8019 297.225 7.62362 301.073 0.021759L253.535 0.0543851ZM272.752 34.4748H279.786C280.74 34.5184 281.509 34.812 281.769 35.8343L283.309 43.2186C281.791 39.3579 278.171 36.1497 272.697 34.8229L272.752 34.4748ZM286.072 51.2881H281.282L277.217 37.3677C280.133 39.2491 282.615 42.229 283.493 44.2953L283.97 46.0245L288.413 34.6271H293.215L286.072 51.2881Z" fill="url(#paint9_linear_5109_1558)"/>
<path d="M272.703 34.812L272.757 34.4749H279.792C280.745 34.5184 281.515 34.812 281.775 35.8343L283.314 43.2186C281.808 39.347 278.177 36.1388 272.703 34.812Z" fill="url(#paint10_linear_5109_1558)"/>
<path d="M283.494 44.3062L283.971 46.0353L288.415 34.638H293.217L286.074 51.299H281.283L277.219 37.3786C280.134 39.26 282.616 42.229 283.494 44.3062Z" fill="url(#paint11_linear_5109_1558)"/>
<path d="M350.904 10.4077C349.224 7.53661 346.883 5.13316 344.076 3.33873C340.791 1.21804 336.879 0 332.695 0L302.531 0.0217507C298.542 7.43874 298.12 15.4974 297.686 23.8714C297.502 27.4385 297.329 31.0382 296.83 34.6054H299.605L296.765 51.299H292.234L292.787 48.0582C290.76 51.9624 287.78 55.7035 283.433 59.1945C270.46 69.5913 258.006 67.4271 245.954 65.3608C233.652 63.2184 222.033 61.2173 209.525 71.2444C197.006 81.2715 196.399 93.093 195.749 105.6C195.11 117.845 194.459 130.515 181.485 140.923C168.512 151.32 156.069 149.177 144.016 147.089C131.715 144.947 120.085 142.946 107.566 152.973C95.0475 163 94.4405 174.821 93.7902 187.328C93.1507 199.573 92.5113 212.243 79.5266 222.651C78.7896 223.249 78.0417 223.793 77.3047 224.304L148.514 224.25C148.709 222.042 148.829 219.78 148.948 217.518C149.587 205.272 150.238 192.602 163.212 182.195C176.185 171.798 188.639 173.94 200.691 176.028C212.993 178.149 224.612 180.172 237.12 170.145C249.628 160.118 250.246 148.285 250.896 135.79C251.535 123.544 252.175 110.874 265.16 100.466C278.133 90.0696 290.587 92.2121 302.629 94.3001C314.93 96.4208 326.549 98.4436 339.057 88.4166C351.576 78.3895 352.183 66.568 352.833 54.0613C352.985 50.9619 353.158 47.8406 353.527 44.7412L353.505 20.587C353.505 16.9003 352.573 13.4202 350.904 10.4077ZM304.666 51.56C302.629 51.5383 300.678 51.125 299.615 50.6682L300.255 46.9271L300.829 47.1881C302.314 47.808 303.29 48.069 305.1 48.069C306.4 48.069 307.799 47.5579 307.82 46.4377C307.831 45.6982 307.224 45.1762 305.468 44.3605C303.734 43.5666 301.458 42.229 301.491 39.8364C301.512 36.5955 304.677 34.3117 309.154 34.3117C310.909 34.3117 312.329 34.6815 313.218 35.0186L312.6 38.6292L312.188 38.4443C311.343 38.1072 310.27 37.7918 308.785 37.8027C307.018 37.8027 306.184 38.5531 306.184 39.2491C306.173 40.0213 307.159 40.5433 308.742 41.3154C311.354 42.5117 312.568 43.9473 312.535 45.8613C312.524 49.3088 309.424 51.5491 304.666 51.56ZM324.328 51.2881C324.328 51.2881 323.916 49.3741 323.775 48.7977H317.965C317.792 49.2327 317.011 51.2881 317.011 51.2881H312.242L318.962 35.9648C319.439 34.8881 320.263 34.5836 321.347 34.5836H324.848L328.533 51.2773L324.328 51.2881Z" fill="url(#paint12_linear_5109_1558)"/>
<path d="M301.48 39.8255C301.501 36.5847 304.666 34.3008 309.143 34.3008C310.898 34.3008 312.318 34.6706 313.207 35.0077L312.589 38.6184L312.177 38.4335C311.332 38.0963 310.259 37.781 308.774 37.7918C307.007 37.7918 306.173 38.5422 306.173 39.2382C306.162 40.0104 307.148 40.5324 308.731 41.3046C311.343 42.5009 312.557 43.9364 312.524 45.8505C312.503 49.3197 309.403 51.56 304.645 51.56C302.607 51.5383 300.656 51.125 299.594 50.6682L300.233 46.9271L300.808 47.1881C302.293 47.808 303.268 48.069 305.078 48.069C306.379 48.069 307.777 47.5579 307.799 46.4377C307.809 45.6982 307.202 45.1762 305.447 44.3605C303.723 43.5666 301.458 42.2181 301.48 39.8255Z" fill="url(#paint13_linear_5109_1558)"/>
<path d="M312.242 51.299L318.962 35.9757C319.439 34.899 320.263 34.5945 321.347 34.5945H324.848L328.533 51.2881H324.316C324.316 51.2881 323.905 49.3741 323.764 48.7977H317.954C317.781 49.2327 317 51.2881 317 51.2881L312.242 51.299Z" fill="url(#paint14_linear_5109_1558)"/>
<path d="M353.534 62.8377L353.588 135.539C345.351 137.965 337.287 136.562 328.909 135.126C316.867 133.038 304.413 130.885 291.439 141.292C278.455 151.689 277.804 164.359 277.176 176.616C276.525 189.111 275.919 200.944 263.4 210.971C250.881 220.998 239.262 218.986 226.971 216.854C214.919 214.766 202.465 212.613 189.491 223.021C188.993 223.412 188.505 223.825 188.05 224.239L149.844 224.271C150.028 222.042 150.147 219.823 150.256 217.605C150.906 205.087 151.513 193.277 164.031 183.25C176.55 173.222 188.169 175.224 200.482 177.366C212.534 179.454 224.977 181.607 237.951 171.2C250.925 160.803 251.586 148.133 252.214 135.877C252.865 123.359 253.472 111.548 265.99 101.521C278.509 91.4943 290.128 93.4953 302.419 95.6378C314.471 97.715 326.925 99.8792 339.899 89.4715C349.805 81.4998 352.515 72.2232 353.534 62.8377Z" fill="url(#paint15_linear_5109_1558)"/>
<path d="M350.899 10.4077C352.569 13.4202 353.501 16.9003 353.501 20.587L353.522 44.7412C353.154 47.8515 352.991 50.9728 352.829 54.0613C352.178 66.5789 351.571 78.3895 339.053 88.4166C326.534 98.4436 314.915 96.4317 302.624 94.3001C290.583 92.2121 278.129 90.0587 265.155 100.466C252.17 110.863 251.52 123.533 250.891 135.79C250.241 148.285 249.634 160.118 237.116 170.145C224.597 180.172 212.978 178.16 200.687 176.028C188.635 173.94 176.181 171.787 163.207 182.195C150.233 192.591 149.572 205.261 148.943 217.518C148.824 219.78 148.716 222.031 148.51 224.25L77.3002 224.304C78.0373 223.804 78.7851 223.249 79.5222 222.651C92.5068 212.254 93.1571 199.584 93.7858 187.328C94.4361 174.81 95.0431 163 107.562 152.973C120.08 142.946 131.71 144.947 144.012 147.089C156.064 149.177 168.507 151.33 181.481 140.923C194.455 130.526 195.116 117.856 195.745 105.6C196.395 93.0821 197.002 81.2715 209.521 71.2444C222.039 61.2173 233.658 63.2184 245.949 65.3608C258.002 67.438 270.455 69.6022 283.429 59.1945C287.775 55.7035 290.745 51.9624 292.783 48.0582L292.23 51.299H296.761L299.6 34.6054H296.826C297.324 31.0382 297.508 27.4385 297.682 23.8714C298.105 15.4974 298.538 7.43875 302.527 0.021759H301.074C297.216 7.62363 296.793 15.8019 296.381 23.8061C296.186 27.482 296.002 31.0926 295.514 34.6054H295.07L293.693 42.7184C291.829 48.1887 288.577 53.3762 282.616 58.1614C270.098 68.1884 258.479 66.1765 246.188 64.0449C234.146 61.9569 221.692 59.8035 208.718 70.2112C195.734 80.6081 195.083 93.2778 194.455 105.534C193.805 118.03 193.198 129.863 180.679 139.89C168.16 149.917 156.541 147.905 144.25 145.773C132.198 143.685 119.744 141.532 106.77 151.939C93.7966 162.347 93.1029 175.028 92.4743 187.273C91.824 199.791 91.217 211.602 78.6984 221.629C77.4303 222.64 76.1839 223.543 74.9158 224.304L20.9394 224.348C13.2657 224.358 6.53493 220.258 2.82812 214.136C6.45906 220.628 13.3741 225.011 21.308 225L332.842 224.772C344.537 224.761 354.01 215.234 353.999 203.51L353.869 21.2178C353.869 17.2592 352.796 13.5616 350.899 10.4077ZM353.642 202.858C353.652 214.592 344.169 224.108 332.485 224.119L190.087 224.217C190.152 224.152 190.228 224.097 190.314 224.032C202.833 214.005 214.463 216.006 226.765 218.149C238.817 220.237 251.26 222.39 264.234 211.982C277.208 201.585 277.869 188.916 278.497 176.659C279.148 164.142 279.755 152.331 292.273 142.304C304.792 132.277 316.411 134.278 328.702 136.42C336.82 137.812 345.101 139.248 353.598 136.866L353.642 202.858ZM353.587 135.539C345.35 137.965 337.286 136.562 328.908 135.126C316.866 133.038 304.413 130.885 291.439 141.292C278.454 151.689 277.804 164.359 277.175 176.616C276.525 189.111 275.918 200.944 263.399 210.971C250.881 220.998 239.262 218.986 226.971 216.854C214.918 214.766 202.465 212.613 189.491 223.021C188.992 223.412 188.504 223.825 188.049 224.239L149.843 224.271C150.027 222.042 150.147 219.823 150.255 217.605C150.905 205.087 151.512 193.277 164.031 183.25C176.549 173.223 188.168 175.224 200.481 177.366C212.534 179.454 224.976 181.607 237.95 171.2C250.924 160.803 251.585 148.133 252.214 135.877C252.864 123.359 253.471 111.548 265.99 101.521C278.508 91.4943 290.127 93.4954 302.418 95.6378C314.471 97.715 326.924 99.8792 339.898 89.4715C349.816 81.5216 352.525 72.2449 353.544 62.8595L353.587 135.539Z" fill="url(#paint16_linear_5109_1558)"/>
<path d="M353.589 136.866L353.633 202.858C353.644 214.592 344.16 224.108 332.476 224.119L190.078 224.217C190.143 224.152 190.219 224.097 190.306 224.032C202.824 214.005 214.454 216.006 226.756 218.149C238.809 220.237 251.251 222.39 264.225 211.982C277.199 201.585 277.86 188.916 278.489 176.659C279.139 164.142 279.746 152.331 292.265 142.304C304.783 132.277 316.402 134.278 328.693 136.42C336.8 137.812 345.092 139.259 353.589 136.866Z" fill="url(#paint17_linear_5109_1558)"/>
<path d="M36.0243 95.6425V97.437L33.4881 97.3282L34.973 99.3728L33.3797 100.33L32.1224 98.0351L30.8651 100.33L29.3044 99.3728L30.7567 97.3282L28.2422 97.4478V95.6534L30.7567 95.7948L29.3044 93.7176L30.8651 92.7606L32.1224 95.0553L33.3797 92.7606L34.973 93.7176L33.4989 95.7948L36.0243 95.6425Z" fill="white"/>
<path d="M49.1181 95.6316V97.4261L46.5818 97.3173L48.0667 99.3619L46.4734 100.319L45.2162 98.0242L43.9589 100.319L42.3981 99.3619L43.8505 97.3173L41.3359 97.4369V95.6425L43.8505 95.7839L42.3981 93.7067L43.9589 92.7497L45.2162 95.0444L46.4734 92.7497L48.0667 93.7067L46.5927 95.7839L49.1181 95.6316Z" fill="white"/>
<path d="M62.2118 95.6208V97.4152L59.6756 97.3065L61.1605 99.351L59.5672 100.308L58.3099 98.0134L57.0526 100.308L55.4919 99.351L56.9442 97.3065L54.4297 97.4261V95.6317L56.9442 95.773L55.4919 93.6958L57.0526 92.7388L58.3099 95.0335L59.5672 92.7388L61.1605 93.6958L59.6864 95.773L62.2118 95.6208Z" fill="white"/>
<path d="M75.3056 95.6099V97.4043L72.7693 97.2956L74.2542 99.3401L72.6609 100.297L71.4037 98.0025L70.1464 100.297L68.5856 99.3401L70.038 97.2956L67.5234 97.4152V95.6208L70.038 95.7622L68.5856 93.685L70.1464 92.7279L71.4037 95.0226L72.6609 92.7279L74.2542 93.685L72.7802 95.7622L75.3056 95.6099Z" fill="white"/>
<path d="M97.4696 95.5881V97.3826L94.9334 97.2738L96.4183 99.3184L94.825 100.275L93.5677 97.9807L92.3104 100.275L90.7497 99.3184L92.2021 97.2738L89.6875 97.3935V95.599L92.2021 95.7404L90.7497 93.6632L92.3104 92.7062L93.5677 95.0009L94.825 92.7062L96.4183 93.6632L94.9442 95.7404L97.4696 95.5881Z" fill="white"/>
<path d="M110.563 95.5881V97.3826L108.027 97.2738L109.512 99.3184L107.919 100.275L106.661 97.9807L105.404 100.275L103.843 99.3184L105.296 97.2738L102.781 97.3935V95.599L105.296 95.7404L103.843 93.6632L105.404 92.7062L106.661 95.0009L107.919 92.7062L109.512 93.6632L108.038 95.7404L110.563 95.5881Z" fill="white"/>
<path d="M123.652 95.5773V97.3717L121.105 97.2521L122.59 99.2966L120.997 100.254L119.74 97.959L118.482 100.254L116.922 99.2966L118.374 97.2521L115.859 97.3717V95.5773L118.374 95.7187L116.922 93.6415L118.482 92.6844L119.74 94.9791L120.997 92.6844L122.59 93.6415L121.116 95.7187L123.652 95.5773Z" fill="white"/>
<path d="M136.746 95.5664V97.3608L134.199 97.2521L135.684 99.2966L134.091 100.254L132.833 97.959L131.576 100.254L130.015 99.2966L131.468 97.2521L128.953 97.3717V95.5773L131.468 95.7187L130.015 93.6415L131.576 92.6844L132.833 94.9791L134.091 92.6844L135.684 93.6306L134.21 95.7078L136.746 95.5664Z" fill="white"/>
<path d="M158.915 95.5447V97.3391L156.379 97.2303L157.864 99.2749L156.27 100.232L155.013 97.9372L153.756 100.232L152.195 99.2749L153.647 97.2303L151.133 97.35V95.5555L153.647 95.6969L152.195 93.6197L153.756 92.6627L155.013 94.9574L156.27 92.6627L157.864 93.6197L156.39 95.6969L158.915 95.5447Z" fill="white"/>
<path d="M171.993 95.5447V97.3391L169.457 97.2303L170.942 99.2749L169.348 100.232L168.091 97.9372L166.834 100.232L165.273 99.2749L166.725 97.2303L164.211 97.35V95.5555L166.725 95.6969L165.273 93.6197L166.834 92.6627L168.091 94.9574L169.348 92.6627L170.942 93.6088L169.468 95.686L171.993 95.5447Z" fill="white"/>
<path d="M185.087 95.5338V97.3282L182.551 97.2195L184.035 99.264L182.442 100.221L181.185 97.9263L179.928 100.221L178.367 99.264L179.819 97.2195L177.305 97.3391V95.5447L179.819 95.686L178.367 93.6088L179.928 92.6518L181.185 94.9465L182.442 92.6518L184.035 93.6088L182.561 95.686L185.087 95.5338Z" fill="white"/>
<path d="M198.181 95.5229V97.3173L195.644 97.2086L197.129 99.2531L195.536 100.21L194.279 97.9155L193.021 100.21L191.461 99.2531L192.913 97.2086L190.398 97.3282V95.5338L192.913 95.6751L191.461 93.598L193.021 92.6409L194.279 94.9356L195.536 92.6409L197.129 93.598L195.655 95.6751L198.181 95.5229Z" fill="white"/>
<path d="M211.956 112.597V110.466L218.849 103.397C220.692 101.548 221.613 99.96 221.613 98.6332C221.613 97.5348 221.277 96.6757 220.605 96.0558C219.933 95.4359 219.12 95.1314 218.145 95.1314C216.302 95.1314 214.958 96.0123 214.124 97.7632L211.945 96.4799C212.552 95.2075 213.409 94.2505 214.492 93.598C215.576 92.9454 216.79 92.6192 218.102 92.6083C219.738 92.6083 221.158 93.1521 222.372 94.2287C223.586 95.3163 224.193 96.7627 224.193 98.6006C224.193 100.58 223.033 102.744 220.714 105.082L215.728 110.063L224.561 110.052V112.575L211.956 112.597Z" fill="white"/>
<path d="M236.281 101.004C237.777 101.287 238.991 101.928 239.945 102.94C240.899 103.951 241.376 105.224 241.376 106.779C241.376 108.682 240.725 110.183 239.425 111.292C238.124 112.401 236.542 112.945 234.677 112.945C233.192 112.945 231.87 112.608 230.71 111.923C229.561 111.238 228.738 110.259 228.25 108.965L230.429 107.671C231.003 109.487 232.423 110.389 234.677 110.389C235.891 110.389 236.878 110.074 237.636 109.432C238.395 108.802 238.785 107.91 238.774 106.768C238.774 105.626 238.395 104.734 237.625 104.093C236.867 103.451 235.88 103.125 234.666 103.125H233.994L232.965 101.526L237.484 95.3924L228.803 95.4033V92.9672L240.53 92.9563L240.519 95.2401L236.281 101.004Z" fill="white"/>
<path d="M260.651 106.398V108.834H258.278V112.565H255.687V108.834L245.727 108.845V106.409L252.728 92.9563H255.525L248.523 106.409H255.698V100.863H258.289V106.409L260.651 106.398Z" fill="white"/>
<path d="M270.867 100.591C272.709 100.591 274.27 101.135 275.549 102.222C276.828 103.31 277.468 104.821 277.468 106.746C277.468 108.649 276.817 110.15 275.517 111.26C274.216 112.369 272.634 112.913 270.769 112.913C269.284 112.913 267.951 112.554 266.781 111.836C265.61 111.118 264.786 110.074 264.32 108.715L266.521 107.453C266.781 108.41 267.29 109.128 268.027 109.628C268.775 110.128 269.685 110.368 270.758 110.368C271.983 110.368 272.98 110.052 273.75 109.411C274.509 108.78 274.888 107.888 274.888 106.746C274.888 105.604 274.509 104.713 273.739 104.071C272.97 103.429 271.994 103.103 270.802 103.103H265.274L265.968 92.9346L276.687 92.9237V95.3598L268.341 95.3706L268.005 100.58L270.867 100.591Z" fill="white"/>
<path d="M29.9453 166.278C28.8072 166.278 27.8642 165.897 27.1164 165.147C26.3685 164.396 26 163.461 26 162.363C26 161.264 26.3685 160.329 27.1164 159.579C27.8534 158.817 28.7964 158.448 29.9453 158.448C30.6389 158.448 31.2676 158.611 31.842 158.948C32.4165 159.274 32.8717 159.72 33.1968 160.286L32.3298 160.797C32.113 160.383 31.7878 160.046 31.3651 159.796C30.9424 159.546 30.4655 159.426 29.9453 159.426C29.0782 159.426 28.3628 159.709 27.8209 160.275C27.2681 160.84 26.9972 161.536 26.9972 162.385C26.9972 163.222 27.2681 163.918 27.8209 164.483C28.3737 165.049 29.0782 165.321 29.9453 165.321C30.4655 165.321 30.9316 165.201 31.3651 164.951C31.7878 164.701 32.113 164.375 32.3298 163.961L33.2077 164.462C32.8934 165.027 32.4381 165.473 31.8637 165.81C31.2676 166.115 30.6389 166.278 29.9453 166.278Z" fill="white"/>
<path d="M38.6596 160.731H39.5917V166.137H38.6596V165.212C38.1936 165.93 37.5107 166.278 36.622 166.289C35.8633 166.289 35.2238 166.017 34.6927 165.462C34.1616 164.908 33.8906 164.244 33.8906 163.45C33.8906 162.656 34.1508 161.982 34.6818 161.438C35.2129 160.884 35.8524 160.612 36.6111 160.612C37.4999 160.612 38.1827 160.971 38.6488 161.678V160.731H38.6596ZM36.752 165.364C37.2939 165.364 37.7492 165.179 38.1177 164.81C38.4862 164.44 38.6705 163.983 38.6705 163.429C38.6705 162.885 38.4862 162.428 38.1177 162.047C37.7492 161.678 37.2939 161.493 36.752 161.493C36.2101 161.493 35.7657 161.678 35.3972 162.047C35.0287 162.417 34.8444 162.874 34.8444 163.429C34.8444 163.972 35.0287 164.429 35.3972 164.81C35.7549 165.179 36.2101 165.364 36.752 165.364Z" fill="white"/>
<path d="M41.9556 161.634C42.259 160.96 42.8226 160.634 43.6355 160.634V161.612C43.1803 161.591 42.7793 161.71 42.4541 161.982C42.129 162.254 41.9556 162.678 41.9556 163.265V166.126H41.0234V160.721H41.9556V161.634Z" fill="white"/>
<path d="M48.7191 158.567H49.6621V166.137H48.7299V165.212C48.2639 165.93 47.581 166.278 46.6923 166.278C45.9336 166.278 45.2941 166.006 44.763 165.451C44.2319 164.897 43.9609 164.233 43.9609 163.439C43.9609 162.646 44.2211 161.971 44.7522 161.427C45.2832 160.873 45.9227 160.601 46.6814 160.601C47.5702 160.601 48.253 160.96 48.7191 161.667V158.567ZM46.8115 165.364C47.3534 165.364 47.8086 165.179 48.1772 164.81C48.5457 164.44 48.7299 163.983 48.7299 163.429C48.7299 162.885 48.5457 162.417 48.1772 162.047C47.8086 161.678 47.3534 161.493 46.8115 161.493C46.2696 161.493 45.8252 161.678 45.4567 162.047C45.0882 162.417 44.9039 162.874 44.9039 163.429C44.9039 163.972 45.0882 164.429 45.4567 164.81C45.8143 165.179 46.2696 165.364 46.8115 165.364Z" fill="white"/>
<path d="M58.5278 158.556H59.5141V166.126H58.5278V162.722H54.8643V166.126H53.8672V158.556H54.8643V161.765H58.5278V158.556Z" fill="white"/>
<path d="M65.5792 165.43C65.0265 165.973 64.3545 166.256 63.5633 166.256C62.772 166.256 62.1 165.984 61.5581 165.44C61.0162 164.897 60.7344 164.222 60.7344 163.418C60.7344 162.613 61.0053 161.95 61.5581 161.395C62.1109 160.851 62.772 160.568 63.5633 160.568C64.3545 160.568 65.0265 160.84 65.5792 161.384C66.132 161.928 66.4138 162.602 66.4138 163.407C66.4138 164.212 66.132 164.886 65.5792 165.43ZM63.5741 165.343C64.116 165.343 64.5604 165.158 64.9289 164.788C65.2974 164.418 65.4817 163.961 65.4817 163.418C65.4817 162.874 65.2974 162.417 64.9289 162.047C64.5604 161.678 64.1052 161.493 63.5741 161.504C63.043 161.504 62.5986 161.688 62.2301 162.058C61.8616 162.428 61.6773 162.885 61.6773 163.429C61.6773 163.972 61.8616 164.429 62.2301 164.799C62.5878 165.158 63.043 165.343 63.5741 165.343Z" fill="white"/>
<path d="M67.5234 166.115V158.23H68.4556L68.4664 166.115H67.5234Z" fill="white"/>
<path d="M74.3549 158.546H75.287V166.115H74.3549V165.19C73.8889 165.908 73.206 166.256 72.3173 166.267C71.5586 166.267 70.9191 165.995 70.388 165.44C69.8569 164.886 69.5859 164.222 69.5859 163.429C69.5859 162.635 69.8461 161.96 70.3772 161.417C70.9082 160.873 71.5477 160.59 72.3064 160.59C73.1952 160.59 73.878 160.949 74.3441 161.656L74.3549 158.546ZM72.4365 165.343C72.9784 165.343 73.4336 165.158 73.8022 164.788C74.1707 164.418 74.3549 163.961 74.3549 163.407C74.3549 162.863 74.1707 162.395 73.8022 162.026C73.4336 161.656 72.9784 161.471 72.4365 161.471C71.8946 161.471 71.4502 161.656 71.0817 162.026C70.7132 162.395 70.5289 162.852 70.5289 163.407C70.5289 163.951 70.7132 164.407 71.0817 164.788C71.4502 165.158 71.9054 165.343 72.4365 165.343Z" fill="white"/>
<path d="M77.3679 163.831C77.4654 164.309 77.6822 164.69 78.029 164.951C78.3759 165.212 78.8094 165.353 79.3188 165.353C80.0342 165.353 80.5436 165.092 80.8687 164.56L81.6708 165.016C81.1505 165.832 80.3593 166.234 79.2971 166.234C78.4409 166.234 77.7472 165.963 77.2161 165.43C76.685 164.897 76.4141 164.212 76.4141 163.396C76.4141 162.58 76.6742 161.906 77.1944 161.362C77.7147 160.818 78.3975 160.547 79.2321 160.547C80.0233 160.547 80.6628 160.829 81.1614 161.384C81.66 161.939 81.9092 162.613 81.9092 163.396C81.9092 163.537 81.8984 163.668 81.8767 163.82L77.3679 163.831ZM79.2321 161.449C78.7335 161.449 78.3108 161.591 77.9857 161.873C77.6605 162.156 77.4546 162.537 77.3679 163.015H80.9663C80.8904 162.504 80.6845 162.113 80.3593 161.852C80.0342 161.58 79.6656 161.449 79.2321 161.449Z" fill="white"/>
<path d="M83.9243 161.601C84.2278 160.927 84.7914 160.601 85.6043 160.601V161.58C85.1491 161.558 84.748 161.678 84.4229 161.949C84.0977 162.221 83.9243 162.646 83.9243 163.233V166.093H82.9922V160.688H83.9351V161.601H83.9243Z" fill="white"/>
<path d="M91.8911 160.557C92.5197 160.557 93.0292 160.753 93.4085 161.156C93.7879 161.558 93.983 162.102 93.983 162.787V166.104H93.04V162.841C93.04 162.406 92.9208 162.058 92.6823 161.819C92.4439 161.58 92.1187 161.46 91.7068 161.46C91.2408 161.46 90.8614 161.612 90.5796 161.895C90.287 162.189 90.1461 162.635 90.1461 163.244V166.104H89.2031V160.699H90.1352V161.482C90.5363 160.862 91.1107 160.557 91.8911 160.557Z" fill="white"/>
<path d="M99.7486 160.688H100.681V166.093H99.7377V165.169C99.2717 165.886 98.5888 166.234 97.7001 166.234C96.9414 166.234 96.3019 165.963 95.7708 165.408C95.2397 164.853 94.9688 164.19 94.9688 163.396C94.9688 162.602 95.2289 161.928 95.76 161.384C96.2911 160.829 96.9305 160.557 97.6892 160.557C98.578 160.557 99.2608 160.916 99.7269 161.623L99.7486 160.688ZM97.8301 165.321C98.3721 165.321 98.8273 165.136 99.1958 164.766C99.5643 164.396 99.7486 163.94 99.7486 163.385C99.7486 162.841 99.5643 162.374 99.1958 162.004C98.8273 161.634 98.3721 161.449 97.8301 161.449C97.2882 161.449 96.8438 161.634 96.4753 162.004C96.1068 162.374 95.9225 162.83 95.9225 163.385C95.9225 163.929 96.1068 164.386 96.4753 164.766C96.8438 165.136 97.2882 165.321 97.8301 165.321Z" fill="white"/>
<path d="M107.919 160.536C108.526 160.536 109.014 160.731 109.382 161.123C109.751 161.514 109.946 162.047 109.946 162.722V166.082H109.014V162.754C109.014 162.341 108.905 162.015 108.688 161.786C108.472 161.558 108.19 161.438 107.832 161.438C107.431 161.438 107.106 161.58 106.868 161.841C106.629 162.113 106.51 162.526 106.51 163.081V166.082H105.567V162.754C105.567 162.341 105.469 162.015 105.263 161.786C105.057 161.558 104.776 161.438 104.429 161.438C104.039 161.438 103.703 161.58 103.443 161.852C103.182 162.124 103.052 162.537 103.052 163.081V166.082H102.109V160.677H103.041V161.406C103.41 160.829 103.941 160.536 104.646 160.536C105.372 160.536 105.903 160.84 106.228 161.449C106.597 160.851 107.16 160.547 107.919 160.536Z" fill="white"/>
<path d="M111.899 163.809C111.997 164.288 112.213 164.668 112.56 164.929C112.907 165.201 113.341 165.332 113.85 165.332C114.565 165.332 115.075 165.071 115.4 164.538L116.202 164.995C115.682 165.81 114.891 166.213 113.828 166.213C112.972 166.213 112.278 165.941 111.747 165.408C111.216 164.875 110.945 164.19 110.945 163.374C110.945 162.559 111.205 161.884 111.726 161.34C112.246 160.797 112.929 160.525 113.763 160.525C114.555 160.525 115.194 160.808 115.693 161.362C116.191 161.917 116.44 162.591 116.44 163.374C116.44 163.516 116.43 163.646 116.408 163.798L111.899 163.809ZM113.763 161.417C113.265 161.417 112.842 161.558 112.517 161.841C112.192 162.124 111.986 162.504 111.899 162.983H115.498C115.422 162.472 115.216 162.08 114.891 161.819C114.576 161.558 114.197 161.417 113.763 161.417Z" fill="white"/>
<path d="M33.3485 177.001H35.6246L35.6354 188.572H33.9012L28.9588 181.503V188.572H26.6827L26.6719 177.001H28.3952L33.3485 184.048V177.001Z" fill="white"/>
<path d="M44.6883 187.528C43.8429 188.377 42.8132 188.801 41.5885 188.801C40.3745 188.801 39.334 188.377 38.4995 187.539C37.6649 186.702 37.2422 185.669 37.2422 184.44C37.2422 183.222 37.6649 182.189 38.4995 181.34C39.3449 180.492 40.3637 180.079 41.5885 180.068C42.8132 180.068 43.8429 180.492 44.6883 181.329C45.5337 182.178 45.9564 183.211 45.9564 184.429C45.9564 185.658 45.5337 186.691 44.6883 187.528ZM39.9952 186.071C40.4179 186.495 40.949 186.713 41.5885 186.713C42.228 186.713 42.759 186.495 43.1817 186.071C43.6153 185.636 43.8212 185.092 43.8212 184.44C43.8212 183.776 43.6045 183.233 43.1817 182.808C42.759 182.384 42.2171 182.167 41.5885 182.167C40.949 182.167 40.4179 182.384 40.006 182.808C39.5833 183.233 39.3666 183.787 39.3774 184.44C39.3666 185.103 39.5725 185.647 39.9952 186.071Z" fill="white"/>
<path d="M56.5558 180.068C57.4988 180.068 58.2575 180.372 58.8211 180.992C59.3847 181.612 59.6665 182.439 59.6665 183.472V188.561H57.5421V183.624C57.5421 183.124 57.4229 182.743 57.1736 182.471C56.9352 182.199 56.5883 182.058 56.1548 182.058C55.667 182.058 55.2985 182.221 55.0276 182.537C54.7566 182.852 54.6265 183.32 54.6265 183.929V188.572H52.5022V183.635C52.5022 183.135 52.3829 182.754 52.1336 182.482C51.8952 182.21 51.5484 182.069 51.1148 182.069C50.6379 182.069 50.2694 182.232 49.9876 182.547C49.7058 182.863 49.5649 183.33 49.5649 183.939V188.583H47.4405L47.4297 180.318H49.5541V181.188C50.0526 180.448 50.8113 180.079 51.841 180.079C52.849 180.079 53.5969 180.47 54.0846 181.264C54.6482 180.459 55.4719 180.068 56.5558 180.068Z" fill="white"/>
<path d="M67.7421 180.285H69.8665L69.8773 188.551H67.753V187.572C67.1135 188.377 66.2247 188.779 65.065 188.779C63.9703 188.779 63.0273 188.355 62.2361 187.517C61.4557 186.68 61.0547 185.647 61.0547 184.418C61.0547 183.2 61.4449 182.167 62.2253 181.318C63.0056 180.481 63.9486 180.057 65.0541 180.057C66.203 180.057 67.1026 180.459 67.7421 181.264V180.285ZM63.8294 186.104C64.2629 186.539 64.8048 186.756 65.466 186.756C66.1272 186.756 66.6691 186.539 67.1026 186.104C67.5362 185.669 67.753 185.114 67.753 184.429C67.753 183.744 67.5362 183.189 67.1026 182.754C66.6691 182.319 66.1272 182.102 65.466 182.102C64.8048 182.102 64.2629 182.319 63.8402 182.754C63.4175 183.189 63.2007 183.755 63.2007 184.429C63.1791 185.103 63.3958 185.669 63.8294 186.104Z" fill="white"/>
<path d="M76.3708 180.046C77.2704 180.046 78.0182 180.351 78.6035 180.949C79.1888 181.558 79.4814 182.395 79.4923 183.461V188.54H77.3679V183.733C77.3679 183.178 77.2162 182.765 76.9235 182.471C76.6309 182.178 76.2299 182.036 75.7421 182.036C75.1894 182.036 74.7558 182.21 74.4198 182.547C74.0947 182.885 73.9212 183.407 73.9321 184.081V188.54H71.8077L71.7969 180.274H73.9212V181.199C74.4415 180.438 75.2544 180.046 76.3708 180.046Z" fill="white"/>
<path d="M96.7938 176.957L96.8047 188.529H94.5502V181.025L91.2987 186.397L91.0277 186.408L87.7869 181.057V188.529H85.5108L85.5 176.957H87.8411L91.1469 182.417L94.431 176.947L96.7938 176.957Z" fill="white"/>
<path d="M105.102 180.264H107.226L107.237 188.529H105.112V187.55C104.473 188.355 103.584 188.757 102.424 188.757C101.33 188.757 100.387 188.333 99.5955 187.496C98.8151 186.658 98.4141 185.625 98.4141 184.396C98.4141 183.178 98.8043 182.145 99.5846 181.297C100.365 180.448 101.308 180.035 102.414 180.035C103.562 180.035 104.462 180.438 105.102 181.242V180.264ZM101.189 186.071C101.622 186.506 102.164 186.724 102.825 186.724C103.487 186.724 104.028 186.506 104.462 186.071C104.896 185.636 105.112 185.07 105.112 184.396C105.112 183.711 104.896 183.156 104.462 182.721C104.028 182.286 103.487 182.069 102.825 182.069C102.164 182.069 101.622 182.286 101.2 182.721C100.777 183.156 100.56 183.711 100.56 184.396C100.538 185.081 100.755 185.636 101.189 186.071Z" fill="white"/>
<path d="M113.73 180.024C114.63 180.024 115.378 180.329 115.963 180.927C116.548 181.536 116.841 182.373 116.852 183.439V188.518H114.727V183.711C114.727 183.156 114.576 182.743 114.283 182.45C113.99 182.156 113.589 182.015 113.102 182.015C112.549 182.015 112.115 182.189 111.779 182.526C111.454 182.863 111.281 183.385 111.291 184.059V188.518H109.167L109.156 180.253H111.281V181.177C111.79 180.405 112.614 180.024 113.73 180.024Z" fill="white"/>
<path d="M121.152 186.517H124.805V188.518H118.312V187.104L121.781 182.254H118.475V180.253H124.642V181.666L121.152 186.517Z" fill="white"/>
<path d="M132.891 187.474C132.046 188.322 131.016 188.746 129.792 188.746C128.578 188.746 127.537 188.322 126.703 187.485C125.868 186.647 125.445 185.614 125.445 184.385C125.445 183.167 125.868 182.134 126.703 181.286C127.548 180.438 128.567 180.024 129.792 180.013C131.016 180.013 132.046 180.438 132.891 181.275C133.737 182.123 134.16 183.146 134.16 184.374C134.16 185.593 133.737 186.626 132.891 187.474ZM128.209 186.017C128.632 186.441 129.163 186.658 129.802 186.658C130.442 186.658 130.973 186.441 131.396 186.017C131.829 185.582 132.035 185.038 132.035 184.385C132.035 183.722 131.818 183.178 131.396 182.754C130.973 182.33 130.431 182.112 129.802 182.112C129.163 182.112 128.632 182.33 128.22 182.754C127.797 183.178 127.581 183.733 127.591 184.385C127.57 185.038 127.786 185.582 128.209 186.017Z" fill="white"/>
<path d="M142.681 187.463C141.835 188.311 140.805 188.725 139.581 188.735C138.367 188.735 137.326 188.311 136.492 187.474C135.657 186.637 135.234 185.603 135.234 184.374C135.234 183.156 135.657 182.112 136.492 181.275C137.337 180.427 138.356 180.013 139.581 180.013C140.805 180.013 141.835 180.438 142.681 181.275C143.526 182.112 143.949 183.146 143.949 184.374C143.949 185.582 143.526 186.615 142.681 187.463ZM137.998 186.006C138.421 186.441 138.952 186.647 139.591 186.647C140.231 186.647 140.762 186.43 141.185 186.006C141.618 185.571 141.824 185.027 141.824 184.364C141.824 183.7 141.607 183.156 141.185 182.732C140.762 182.297 140.22 182.091 139.591 182.091C138.952 182.091 138.421 182.308 138.009 182.732C137.586 183.156 137.37 183.711 137.38 184.364C137.359 185.027 137.576 185.571 137.998 186.006Z" fill="white"/>
<path d="M147.565 181.645C147.76 181.112 148.085 180.72 148.54 180.459C148.996 180.198 149.505 180.057 150.069 180.057V182.439C149.418 182.363 148.844 182.493 148.334 182.841C147.825 183.178 147.565 183.744 147.565 184.548V188.496H145.441L145.43 180.231H147.554V181.645H147.565Z" fill="white"/>
<path d="M258.778 165.027H262.279V165.973H257.781V158.404H262.225V159.361H258.778V161.688H261.954V162.624H258.778V165.027Z" fill="white"/>
<path d="M268.057 165.963H266.962L265.445 163.918L263.938 165.963H262.844L264.903 163.178L262.963 160.557H264.069L265.456 162.428L266.843 160.547H267.938L265.998 163.168L268.057 165.963Z" fill="white"/>
<path d="M271.907 160.427C272.666 160.427 273.305 160.699 273.837 161.253C274.368 161.808 274.639 162.482 274.639 163.265C274.639 164.059 274.378 164.734 273.847 165.277C273.316 165.832 272.677 166.104 271.918 166.104C271.029 166.104 270.347 165.745 269.88 165.038V168.127H268.948L268.938 160.557H269.88V161.482C270.336 160.775 271.019 160.427 271.907 160.427ZM271.788 165.201C272.33 165.201 272.774 165.016 273.143 164.647C273.511 164.277 273.696 163.82 273.696 163.265C273.696 162.722 273.511 162.254 273.143 161.884C272.774 161.514 272.319 161.33 271.788 161.33C271.246 161.33 270.791 161.514 270.422 161.884C270.054 162.254 269.87 162.711 269.87 163.265C269.87 163.809 270.054 164.266 270.422 164.647C270.791 165.016 271.246 165.201 271.788 165.201Z" fill="white"/>
<path d="M276.218 159.579C276.033 159.579 275.892 159.513 275.762 159.394C275.643 159.274 275.578 159.122 275.578 158.948C275.578 158.774 275.643 158.622 275.762 158.502C275.882 158.372 276.033 158.317 276.218 158.317C276.391 158.317 276.532 158.382 276.662 158.502C276.781 158.633 276.846 158.774 276.846 158.948C276.846 159.122 276.781 159.263 276.662 159.394C276.543 159.513 276.391 159.579 276.218 159.579ZM275.752 165.963V160.557H276.694V165.963H275.752Z" fill="white"/>
<path d="M279.049 161.46C279.353 160.786 279.916 160.46 280.729 160.46V161.438C280.274 161.417 279.873 161.536 279.548 161.808C279.223 162.08 279.049 162.504 279.049 163.091V165.952H278.117V160.547H279.06V161.46H279.049Z" fill="white"/>
<path d="M285.525 160.557H286.523L284.333 166.3C284.106 166.909 283.78 167.376 283.369 167.703C282.957 168.018 282.48 168.17 281.938 168.127V167.257C282.599 167.311 283.076 166.941 283.379 166.147L283.477 165.941L281.125 160.557H282.122L283.921 164.701L285.525 160.557Z" fill="white"/>
<path d="M293.042 158.382C294.072 158.382 294.917 158.752 295.6 159.481C296.283 160.209 296.619 161.101 296.619 162.167C296.619 163.222 296.283 164.125 295.6 164.853C294.917 165.582 294.072 165.952 293.042 165.952H290.105L290.094 158.382H293.042ZM293.042 164.995C293.811 164.995 294.44 164.723 294.928 164.179C295.416 163.635 295.654 162.961 295.654 162.156C295.654 161.351 295.405 160.677 294.917 160.133C294.429 159.59 293.801 159.329 293.031 159.329H291.091V164.995H293.042Z" fill="white"/>
<path d="M302.202 160.536H303.134V165.941H302.191V165.016C301.725 165.734 301.042 166.082 300.153 166.093C299.395 166.093 298.755 165.821 298.224 165.266C297.693 164.712 297.422 164.048 297.422 163.255C297.422 162.461 297.682 161.786 298.213 161.243C298.744 160.688 299.384 160.416 300.142 160.416C301.031 160.416 301.714 160.775 302.18 161.482L302.202 160.536ZM300.283 165.179C300.825 165.179 301.28 164.995 301.649 164.625C302.017 164.255 302.202 163.798 302.202 163.244C302.202 162.7 302.017 162.232 301.649 161.862C301.28 161.493 300.825 161.308 300.283 161.308C299.741 161.308 299.297 161.493 298.928 161.862C298.56 162.232 298.376 162.689 298.376 163.244C298.376 163.787 298.56 164.244 298.928 164.625C299.297 164.995 299.741 165.179 300.283 165.179Z" fill="white"/>
<path d="M307.475 161.449H306.044V164.375C306.044 164.647 306.098 164.831 306.196 164.94C306.304 165.049 306.456 165.114 306.673 165.114C306.89 165.114 307.15 165.114 307.475 165.092V165.941C306.651 166.049 306.055 165.984 305.676 165.745C305.296 165.506 305.101 165.049 305.101 164.375V161.449H304.039V160.547H305.101V159.318L306.033 159.035V160.547H307.464L307.475 161.449Z" fill="white"/>
<path d="M308.985 163.668C309.083 164.146 309.299 164.527 309.646 164.788C309.993 165.06 310.427 165.19 310.936 165.19C311.651 165.19 312.161 164.929 312.486 164.396L313.288 164.853C312.768 165.669 311.977 166.071 310.914 166.071C310.058 166.071 309.364 165.799 308.833 165.266C308.302 164.734 308.031 164.048 308.031 163.233C308.031 162.417 308.291 161.743 308.812 161.199C309.332 160.655 310.015 160.383 310.849 160.383C311.641 160.383 312.28 160.666 312.789 161.221C313.288 161.775 313.537 162.45 313.537 163.233C313.537 163.374 313.526 163.505 313.505 163.657L308.985 163.668ZM310.838 161.275C310.34 161.275 309.917 161.417 309.592 161.699C309.267 161.982 309.061 162.363 308.974 162.841H312.573C312.497 162.33 312.291 161.939 311.966 161.678C311.651 161.417 311.272 161.275 310.838 161.275Z" fill="white"/>
<path d="M265.454 186.985C264.674 188.072 263.579 188.616 262.181 188.627C260.772 188.627 259.678 188.083 258.897 186.995C258.117 185.908 257.727 184.451 257.727 182.634C257.727 180.818 258.117 179.361 258.897 178.273C259.678 177.186 260.772 176.631 262.17 176.631C263.579 176.631 264.663 177.175 265.444 178.263C266.224 179.35 266.614 180.807 266.614 182.624C266.625 184.44 266.235 185.897 265.454 186.985ZM260.014 185.951C260.523 186.734 261.238 187.126 262.17 187.126C263.103 187.126 263.829 186.734 264.338 185.951C264.848 185.168 265.108 184.059 265.097 182.624C265.086 181.188 264.837 180.079 264.327 179.296C263.818 178.513 263.092 178.11 262.16 178.11C261.227 178.11 260.501 178.502 260.003 179.285C259.493 180.068 259.244 181.177 259.244 182.624C259.255 184.059 259.515 185.168 260.014 185.951Z" fill="white"/>
<path d="M267.74 188.409V187.148L271.805 182.982C272.889 181.895 273.431 180.96 273.431 180.177C273.431 179.524 273.236 179.024 272.835 178.654C272.444 178.295 271.957 178.11 271.382 178.11C270.298 178.11 269.507 178.632 269.009 179.665L267.719 178.904C268.076 178.154 268.586 177.588 269.225 177.197C269.865 176.805 270.58 176.62 271.361 176.62C272.325 176.62 273.171 176.936 273.886 177.577C274.601 178.219 274.959 179.078 274.959 180.155C274.959 181.329 274.276 182.602 272.9 183.972L269.962 186.919H275.176V188.409H267.74Z" fill="white"/>
<path d="M277.325 190.03L276.469 190.051L283.048 175.196L283.904 175.174L277.325 190.03Z" fill="white"/>
<path d="M289.721 181.558C290.599 181.721 291.325 182.102 291.878 182.7C292.441 183.298 292.723 184.048 292.723 184.962C292.723 186.082 292.344 186.974 291.574 187.626C290.805 188.279 289.873 188.605 288.778 188.605C287.9 188.605 287.12 188.409 286.437 188.007C285.754 187.604 285.277 187.028 284.984 186.267L286.263 185.505C286.599 186.571 287.434 187.104 288.767 187.104C289.482 187.104 290.068 186.919 290.512 186.539C290.956 186.158 291.184 185.636 291.184 184.973C291.184 184.298 290.956 183.776 290.512 183.396C290.057 183.015 289.482 182.83 288.767 182.83H288.377L287.77 181.884L290.436 178.263H285.31V176.827H292.225L292.214 178.176L289.721 181.558Z" fill="white"/>
<path d="M301.806 186.963C301.026 188.05 299.931 188.605 298.533 188.605C297.124 188.605 296.029 188.061 295.249 186.974C294.468 185.886 294.078 184.429 294.078 182.613C294.078 180.796 294.468 179.339 295.249 178.252C296.029 177.164 297.124 176.62 298.522 176.609C299.931 176.609 301.015 177.153 301.795 178.241C302.576 179.328 302.966 180.786 302.966 182.602C302.966 184.418 302.586 185.864 301.806 186.963ZM296.376 185.919C296.885 186.702 297.601 187.093 298.533 187.093C299.465 187.093 300.191 186.702 300.701 185.919C301.21 185.136 301.47 184.026 301.47 182.602C301.47 181.166 301.21 180.057 300.701 179.274C300.191 178.491 299.465 178.089 298.533 178.099C297.601 178.099 296.875 178.491 296.376 179.274C295.867 180.057 295.617 181.166 295.617 182.613C295.617 184.037 295.867 185.136 296.376 185.919Z" fill="white"/>
<path d="M324.941 34.9472H321.44C320.346 34.9472 319.522 35.2517 319.056 36.3284L312.336 51.6517H317.105C317.105 51.6517 317.896 49.5963 318.059 49.1613H323.868C324.009 49.7377 324.421 51.6517 324.421 51.6517H328.637L324.941 34.9472ZM319.359 45.7355C319.728 44.7785 321.137 41.0483 321.137 41.0483C321.137 41.0483 321.527 40.0695 321.755 39.4713L322.058 40.9069C322.058 40.9069 322.936 44.8873 323.11 45.7355H319.359Z" fill="white"/>
<path d="M306.29 39.591C306.279 40.3631 307.265 40.8852 308.848 41.6573C311.46 42.8536 312.674 44.2891 312.641 46.2032C312.62 49.6724 309.52 51.9128 304.762 51.9128C302.724 51.891 300.773 51.4777 299.711 51.021L300.35 47.2799L300.925 47.5409C302.41 48.1608 303.385 48.4218 305.195 48.4218C306.496 48.4218 307.894 47.9106 307.916 46.7905C307.927 46.0509 307.32 45.5289 305.564 44.7133C303.83 43.9194 301.554 42.5817 301.586 40.1891C301.608 36.9483 304.773 34.6645 309.249 34.6645C311.005 34.6645 312.425 35.0342 313.313 35.3714L312.696 38.982L312.284 38.7971C311.438 38.46 310.365 38.1446 308.88 38.1554C307.114 38.1446 306.29 38.895 306.29 39.591Z" fill="white"/>
<path d="M299.688 34.9581L296.859 51.6518H292.328L292.881 48.4109L293.78 43.082L295.146 34.969L299.688 34.9581Z" fill="white"/>
<path d="M283.408 43.5605C281.89 39.6997 278.27 36.4915 272.797 35.1647L272.851 34.8276H279.885C280.839 34.8711 281.609 35.1647 281.869 36.187L283.408 43.5605Z" fill="white"/>
<path d="M293.318 34.9799L286.175 51.6409H281.385L277.32 37.7204C280.236 39.6019 282.718 42.5817 283.596 44.648L284.073 46.3772L288.517 34.9799H293.318Z" fill="white"/>
<path d="M62.675 36.1435L62.6859 55.5016C62.6859 57.7854 60.8216 59.656 58.5564 59.656L31.9151 59.6778C29.6281 59.6778 27.7639 57.8072 27.7639 55.5342L27.7422 36.1761C27.7422 33.8814 29.6064 32.0218 31.8825 32.0218L58.5347 32C60.8108 32 62.675 33.8488 62.675 36.1435Z" fill="#F6C859"/>
<path d="M41.2104 55.9802C41.0586 55.9802 40.9177 55.904 40.8527 55.7627C40.7552 55.5669 40.831 55.3168 41.0261 55.2189C41.6114 54.9144 42.4026 54.3489 42.8687 53.381C43.454 52.1412 43.3022 50.7926 43.0529 50.673C42.9879 50.6404 42.7495 50.7709 42.5977 50.847C42.2184 51.0428 41.6873 51.3146 41.0803 51.0971C40.4842 50.8905 40.1915 50.3576 40.0506 50.0966C39.1294 48.4109 38.8476 44.039 39.8122 41.864C40.1374 41.1462 40.5709 40.7112 41.1128 40.5807C41.6656 40.4502 42.1208 40.6785 42.4785 40.8743C42.7711 41.0266 42.9229 41.0918 43.0204 41.0374C43.3998 40.8091 43.3889 39.417 42.8578 38.3186C42.3918 37.3398 41.6006 36.7743 41.0153 36.4807C40.8202 36.3828 40.7335 36.1327 40.8419 35.9369C40.9394 35.7411 41.1887 35.6541 41.3838 35.7629C42.0775 36.1218 43.0313 36.796 43.584 37.9815C44.1368 39.1451 44.3969 41.1571 43.4323 41.7443C42.9446 42.038 42.4785 41.7987 42.11 41.6138C41.8282 41.4724 41.5572 41.3311 41.2971 41.3963C40.9394 41.4833 40.701 41.8857 40.5492 42.212C39.7038 44.1152 39.9531 48.2478 40.7552 49.7268C40.8961 49.977 41.0586 50.2489 41.3404 50.3467C41.6114 50.4446 41.8715 50.325 42.2292 50.1401C42.5869 49.9552 42.9771 49.7595 43.3998 49.9552C44.3102 50.4011 44.2452 52.3478 43.5949 53.7398C43.0313 54.9252 42.0883 55.5995 41.3946 55.9584C41.3296 55.9693 41.2646 55.9802 41.2104 55.9802Z" fill="#7D662D"/>
<path d="M39.9862 42.5926H32.7135C32.4859 42.5926 32.3125 42.4077 32.3125 42.1902C32.3125 41.9727 32.4859 41.7878 32.7027 41.7878H39.9754C40.203 41.7878 40.3764 41.9727 40.3764 42.1902C40.3873 42.4077 40.2139 42.5926 39.9862 42.5926Z" fill="#7D662D"/>
<path d="M39.9862 49.9008H32.7135C32.4859 49.9008 32.3125 49.7159 32.3125 49.4984C32.3125 49.2701 32.4968 49.0961 32.7135 49.0961H39.9862C40.2138 49.0961 40.3873 49.2809 40.3873 49.4984C40.3981 49.7159 40.2138 49.9008 39.9862 49.9008Z" fill="#7D662D"/>
<path d="M49.699 55.9693C49.634 55.9693 49.5689 55.9584 49.5147 55.9258C48.8211 55.5669 47.8673 54.8926 47.3145 53.7072C46.6533 52.3152 46.5991 50.3685 47.4987 49.9226C47.9215 49.7159 48.3225 49.9226 48.6693 50.0966C49.0378 50.2815 49.298 50.4011 49.5581 50.3032C49.8616 50.1945 50.035 49.8791 50.1434 49.6833C50.9454 48.2043 51.1839 44.0608 50.3385 42.1685C50.1867 41.8422 49.9483 41.4289 49.5906 41.3528C49.3738 41.2984 49.2329 41.0809 49.2871 40.8634C49.3413 40.6459 49.5581 40.5154 49.7749 40.5589C50.3168 40.6894 50.7503 41.1135 51.0755 41.8313C52.051 44.0064 51.7692 48.3892 50.8479 50.064C50.707 50.325 50.4143 50.8579 49.8182 51.0645C49.2112 51.282 48.6802 51.0101 48.3008 50.8144C48.1491 50.7382 47.9106 50.6186 47.8456 50.6403C47.6071 50.76 47.4446 52.1085 48.0407 53.3483C48.5067 54.3271 49.298 54.8926 49.8832 55.1862C50.0783 55.2841 50.165 55.5343 50.0567 55.73C49.9916 55.8931 49.8507 55.9693 49.699 55.9693Z" fill="#7D662D"/>
<path d="M48.0682 40.9613C47.8948 40.9613 47.7431 40.8525 47.6889 40.6894C46.8218 38.0793 48.8486 36.0674 49.4989 35.7411C49.694 35.6324 49.9433 35.7194 50.0409 35.9151C50.1384 36.1109 50.0625 36.361 49.8674 36.4589C49.5748 36.6112 47.7105 38.2098 48.4476 40.4284C48.5234 40.6459 48.4042 40.8743 48.1874 40.9395C48.1549 40.9613 48.1116 40.9613 48.0682 40.9613Z" fill="#7D662D"/>
<path d="M58.1816 42.5817H50.9088C50.6812 42.5817 50.5078 42.3968 50.5078 42.1793C50.5078 41.9618 50.6921 41.7769 50.9088 41.7769H58.1816C58.4092 41.7769 58.5826 41.9618 58.5826 42.1793C58.5826 42.3968 58.3983 42.5817 58.1816 42.5817Z" fill="#7D662D"/>
<path d="M58.1816 49.8791H50.9088C50.6812 49.8791 50.5078 49.6942 50.5078 49.4767C50.5078 49.2483 50.6921 49.0743 50.9088 49.0743H58.1816C58.4092 49.0743 58.5826 49.2592 58.5826 49.4767C58.5826 49.7051 58.4092 49.8791 58.1816 49.8791Z" fill="#7D662D"/>
<defs>
<linearGradient id="paint0_linear_5109_1558" x1="24.0126" y1="130.602" x2="62.6478" y2="31.4555" gradientUnits="userSpaceOnUse">
<stop stop-color="#885DF5"/>
<stop offset="0.9944" stop-color="#6B7CFE"/>
</linearGradient>
<linearGradient id="paint1_linear_5109_1558" x1="75.8566" y1="220.129" x2="144.335" y2="44.3982" gradientUnits="userSpaceOnUse">
<stop stop-color="#885DF5"/>
<stop offset="0.9944" stop-color="#6B7CFE"/>
</linearGradient>
<linearGradient id="paint2_linear_5109_1558" x1="277.144" y1="41.1438" x2="279.017" y2="36.3374" gradientUnits="userSpaceOnUse">
<stop stop-color="#885DF5"/>
<stop offset="0.9944" stop-color="#6B7CFE"/>
</linearGradient>
<linearGradient id="paint3_linear_5109_1558" x1="279.235" y1="51.457" x2="284.508" y2="37.9252" gradientUnits="userSpaceOnUse">
<stop stop-color="#885DF5"/>
<stop offset="0.9944" stop-color="#6B7CFE"/>
</linearGradient>
<linearGradient id="paint4_linear_5109_1558" x1="303.111" y1="52.975" x2="308.296" y2="39.671" gradientUnits="userSpaceOnUse">
<stop stop-color="#885DF5"/>
<stop offset="0.9944" stop-color="#6B7CFE"/>
</linearGradient>
<linearGradient id="paint5_linear_5109_1558" x1="318.992" y1="54.9049" x2="324.34" y2="41.1787" gradientUnits="userSpaceOnUse">
<stop stop-color="#885DF5"/>
<stop offset="0.9944" stop-color="#6B7CFE"/>
</linearGradient>
<linearGradient id="paint6_linear_5109_1558" x1="147.331" y1="291.164" x2="232.561" y2="72.4438" gradientUnits="userSpaceOnUse">
<stop stop-color="#885DF5"/>
<stop offset="0.9944" stop-color="#6B7CFE"/>
</linearGradient>
<linearGradient id="paint7_linear_5109_1558" x1="0.0246164" y1="55.898" x2="106.87" y2="55.8214" gradientUnits="userSpaceOnUse">
<stop stop-color="#4D338A"/>
<stop offset="0.9888" stop-color="#252857"/>
</linearGradient>
<linearGradient id="paint8_linear_5109_1558" x1="0.0480865" y1="89.7482" x2="252.066" y2="89.5677" gradientUnits="userSpaceOnUse">
<stop stop-color="#6947BD"/>
<stop offset="0.9888" stop-color="#252857"/>
</linearGradient>
<linearGradient id="paint9_linear_5109_1558" x1="0.0629771" y1="112.3" x2="301.145" y2="112.085" gradientUnits="userSpaceOnUse">
<stop stop-color="#885DF5"/>
<stop offset="0.9888" stop-color="#2E3670"/>
</linearGradient>
<linearGradient id="paint10_linear_5109_1558" x1="277.144" y1="41.1438" x2="279.017" y2="36.3374" gradientUnits="userSpaceOnUse">
<stop stop-color="#885DF5"/>
<stop offset="0.9944" stop-color="#6B7CFE"/>
</linearGradient>
<linearGradient id="paint11_linear_5109_1558" x1="279.235" y1="51.457" x2="284.508" y2="37.9252" gradientUnits="userSpaceOnUse">
<stop stop-color="#885DF5"/>
<stop offset="0.9944" stop-color="#6B7CFE"/>
</linearGradient>
<linearGradient id="paint12_linear_5109_1558" x1="77.2228" y1="112.245" x2="353.576" y2="112.047" gradientUnits="userSpaceOnUse">
<stop stop-color="#885DF5"/>
<stop offset="0.9944" stop-color="#4551A6"/>
</linearGradient>
<linearGradient id="paint13_linear_5109_1558" x1="303.111" y1="52.975" x2="308.296" y2="39.671" gradientUnits="userSpaceOnUse">
<stop stop-color="#885DF5"/>
<stop offset="0.9944" stop-color="#6B7CFE"/>
</linearGradient>
<linearGradient id="paint14_linear_5109_1558" x1="318.992" y1="54.9049" x2="324.34" y2="41.1787" gradientUnits="userSpaceOnUse">
<stop stop-color="#885DF5"/>
<stop offset="0.9944" stop-color="#6B7CFE"/>
</linearGradient>
<linearGradient id="paint15_linear_5109_1558" x1="149.775" y1="143.617" x2="353.595" y2="143.471" gradientUnits="userSpaceOnUse">
<stop stop-color="#885DF5"/>
<stop offset="0.9944" stop-color="#5C6BDB"/>
</linearGradient>
<linearGradient id="paint16_linear_5109_1558" x1="147.331" y1="291.164" x2="232.561" y2="72.4438" gradientUnits="userSpaceOnUse">
<stop stop-color="#885DF5"/>
<stop offset="0.9944" stop-color="#6B7CFE"/>
</linearGradient>
<linearGradient id="paint17_linear_5109_1558" x1="190.047" y1="179.496" x2="353.622" y2="179.379" gradientUnits="userSpaceOnUse">
<stop stop-color="#885DF5"/>
<stop offset="0.9944" stop-color="#6B7CFE"/>
</linearGradient>
</defs>
</svg>
